<?xml version="1.0" encoding="UTF-8" standalone="no"?>
<!-- Created with Inkscape (http://www.inkscape.org/) -->

<svg
   xmlns:dc="http://purl.org/dc/elements/1.1/"
   xmlns:cc="http://creativecommons.org/ns#"
   xmlns:rdf="http://www.w3.org/1999/02/22-rdf-syntax-ns#"
   xmlns:svg="http://www.w3.org/2000/svg"
   xmlns="http://www.w3.org/2000/svg"
   xmlns:inkscape="http://www.inkscape.org/namespaces/inkscape"
   version="1.1"
   width="63.75"
   height="65"
   id="svg2"
   xml:space="preserve"><metadata
     id="metadata8"><rdf:RDF><cc:Work
         rdf:about=""><dc:format>image/svg+xml</dc:format><dc:type
           rdf:resource="http://purl.org/dc/dcmitype/StillImage" /></cc:Work></rdf:RDF></metadata><defs
     id="defs6"><clipPath
       id="clipPath18"><path
         d="M 256.562,511.02 C 393.66,511.02 504.844,398.523 504.844,259.805 504.844,121.086 393.66,8.58984 256.562,8.58984 119.465,8.58984 8.28125,121.086 8.28125,259.805 8.28125,398.523 119.465,511.02 256.562,511.02 z"
         inkscape:connector-curvature="0"
         id="path20" /></clipPath></defs><g
     transform="matrix(1.25,0,0,-1.25,0,65)"
     id="g10"><g
       transform="scale(0.1,0.1)"
       id="g12"><g
         id="g14"><g
           clip-path="url(#clipPath18)"
           id="g16"><path
             d="M 256.562,511.02 C 393.66,511.02 504.844,398.523 504.844,259.805 504.844,121.086 393.66,8.58984 256.562,8.58984 119.465,8.58984 8.28125,121.086 8.28125,259.805 8.28125,398.523 119.465,511.02 256.562,511.02 z M 504.844,8.58984 l 0,502.43016 -496.56275,0 0,-502.43016 496.56275,0 z M -216.66,-143.781 l 827.269,0 0,827.269 -827.269,0"
             inkscape:connector-curvature="0"
             id="path22"
             style="fill:#1d50a0;fill-opacity:1;fill-rule:nonzero;stroke:none" /><path
             d="m 0,63.0352 403.793,0 0,413.637 -403.793,0 0,-413.637 z"
             inkscape:connector-curvature="0"
             id="path24"
             style="fill:#1d50a0;fill-opacity:1;fill-rule:nonzero;stroke:none" /><path
             d="m 0,64.6523 402.176,0 0,410.402 -402.176,0 0,-410.402 z"
             inkscape:connector-curvature="0"
             id="path26"
             style="fill:#1e51a1;fill-opacity:1;fill-rule:nonzero;stroke:none" /><path
             d="m 0,66.2695 400.559,0 0,407.168 -400.559,0 0,-407.168 z"
             inkscape:connector-curvature="0"
             id="path28"
             style="fill:#2051a1;fill-opacity:1;fill-rule:nonzero;stroke:none" /><path
             d="m 0,67.8828 398.945,0 0,403.941 -398.945,0 0,-403.941 z"
             inkscape:connector-curvature="0"
             id="path30"
             style="fill:#2052a2;fill-opacity:1;fill-rule:nonzero;stroke:none" /><path
             d="m 0,69.5 397.328,0 0,400.707 L 0,470.207 0,69.5 z"
             inkscape:connector-curvature="0"
             id="path32"
             style="fill:#2252a2;fill-opacity:1;fill-rule:nonzero;stroke:none" /><path
             d="m 0,71.1172 395.711,0 0,397.473 -395.711,0 0,-397.473 z"
             inkscape:connector-curvature="0"
             id="path34"
             style="fill:#2353a3;fill-opacity:1;fill-rule:nonzero;stroke:none" /><path
             d="m 0,72.7305 394.098,0 0,394.246 -394.098,0 0,-394.246 z"
             inkscape:connector-curvature="0"
             id="path36"
             style="fill:#2554a4;fill-opacity:1;fill-rule:nonzero;stroke:none" /><path
             d="m 1.46875,74.3477 391.012,0 0,391.012 -391.012,0 0,-391.012 z"
             inkscape:connector-curvature="0"
             id="path38"
             style="fill:#2654a4;fill-opacity:1;fill-rule:nonzero;stroke:none" /><path
             d="m 3.08594,75.9648 387.777,0 0,387.777 -387.777,0 0,-387.777 z"
             inkscape:connector-curvature="0"
             id="path40"
             style="fill:#2755a5;fill-opacity:1;fill-rule:nonzero;stroke:none" /><path
             d="m 4.69922,77.5781 384.551,0 0,384.551 -384.551,0 0,-384.551 z"
             inkscape:connector-curvature="0"
             id="path42"
             style="fill:#2856a5;fill-opacity:1;fill-rule:nonzero;stroke:none" /><path
             d="m 6.31641,79.1953 381.316,0 0,381.316 -381.316,0 0,-381.316 z"
             inkscape:connector-curvature="0"
             id="path44"
             style="fill:#2a56a6;fill-opacity:1;fill-rule:nonzero;stroke:none" /><path
             d="m 7.92969,80.8086 378.09,0 0,378.09 -378.09,0 0,-378.09 z"
             inkscape:connector-curvature="0"
             id="path46"
             style="fill:#2b57a6;fill-opacity:1;fill-rule:nonzero;stroke:none" /><path
             d="m 9.54688,82.4258 374.855,0 0,374.855 -374.855,0 0,-374.855 z"
             inkscape:connector-curvature="0"
             id="path48"
             style="fill:#2c58a7;fill-opacity:1;fill-rule:nonzero;stroke:none" /><path
             d="m 11.1641,84.043 371.621,0 0,371.621 -371.621,0 0,-371.621 z"
             inkscape:connector-curvature="0"
             id="path50"
             style="fill:#2e58a8;fill-opacity:1;fill-rule:nonzero;stroke:none" /><path
             d="m 12.7773,85.6562 368.395,0 0,368.395 -368.395,0 0,-368.395 z"
             inkscape:connector-curvature="0"
             id="path52"
             style="fill:#2f59a8;fill-opacity:1;fill-rule:nonzero;stroke:none" /><path
             d="m 14.3945,87.2734 365.16,0 0,365.16 -365.16,0 0,-365.16 z"
             inkscape:connector-curvature="0"
             id="path54"
             style="fill:#305aa9;fill-opacity:1;fill-rule:nonzero;stroke:none" /><path
             d="m 16.0117,88.8906 361.926,0 0,361.926 -361.926,0 0,-361.926 z"
             inkscape:connector-curvature="0"
             id="path56"
             style="fill:#315aa9;fill-opacity:1;fill-rule:nonzero;stroke:none" /><path
             d="m 17.625,90.5039 358.699,0 0,358.699 -358.699,0 0,-358.699 z"
             inkscape:connector-curvature="0"
             id="path58"
             style="fill:#335baa;fill-opacity:1;fill-rule:nonzero;stroke:none" /><path
             d="m 19.2422,92.1211 355.465,0 0,355.465 -355.465,0 0,-355.465 z"
             inkscape:connector-curvature="0"
             id="path60"
             style="fill:#345caa;fill-opacity:1;fill-rule:nonzero;stroke:none" /><path
             d="m 20.8555,93.7344 352.238,0 0,352.238 -352.238,0 0,-352.238 z"
             inkscape:connector-curvature="0"
             id="path62"
             style="fill:#365dab;fill-opacity:1;fill-rule:nonzero;stroke:none" /><path
             d="m 22.4727,95.3516 349.004,0 0,349.004 -349.004,0 0,-349.004 z"
             inkscape:connector-curvature="0"
             id="path64"
             style="fill:#375eac;fill-opacity:1;fill-rule:nonzero;stroke:none" /><path
             d="m 24.0898,96.9688 345.77,0 0,345.77 -345.77,0 0,-345.77 z"
             inkscape:connector-curvature="0"
             id="path66"
             style="fill:#385eac;fill-opacity:1;fill-rule:nonzero;stroke:none" /><path
             d="m 25.7031,98.582 342.543,0 0,342.543 -342.543,0 0,-342.543 z"
             inkscape:connector-curvature="0"
             id="path68"
             style="fill:#3a5fad;fill-opacity:1;fill-rule:nonzero;stroke:none" /><path
             d="m 27.3203,100.199 339.309,0 0,339.309 -339.309,0 0,-339.309 z"
             inkscape:connector-curvature="0"
             id="path70"
             style="fill:#3b60ad;fill-opacity:1;fill-rule:nonzero;stroke:none" /><path
             d="m 28.9375,101.816 336.074,0 0,336.074 -336.074,0 0,-336.074 z"
             inkscape:connector-curvature="0"
             id="path72"
             style="fill:#3c61ae;fill-opacity:1;fill-rule:nonzero;stroke:none" /><path
             d="m 30.5508,103.43 332.848,0 0,332.848 -332.848,0 0,-332.848 z"
             inkscape:connector-curvature="0"
             id="path74"
             style="fill:#3e62af;fill-opacity:1;fill-rule:nonzero;stroke:none" /><path
             d="m 32.168,105.047 329.613,0 0,329.613 -329.613,0 0,-329.613 z"
             inkscape:connector-curvature="0"
             id="path76"
             style="fill:#3f62af;fill-opacity:1;fill-rule:nonzero;stroke:none" /><path
             d="m 33.7852,106.664 326.379,0 0,326.379 -326.379,0 0,-326.379 z"
             inkscape:connector-curvature="0"
             id="path78"
             style="fill:#4163b0;fill-opacity:1;fill-rule:nonzero;stroke:none" /><path
             d="m 35.3984,108.277 323.152,0 0,323.152 -323.152,0 0,-323.152 z"
             inkscape:connector-curvature="0"
             id="path80"
             style="fill:#4264b0;fill-opacity:1;fill-rule:nonzero;stroke:none" /><path
             d="m 37.0156,109.895 319.918,0 0,319.918 -319.918,0 0,-319.918 z"
             inkscape:connector-curvature="0"
             id="path82"
             style="fill:#4365b1;fill-opacity:1;fill-rule:nonzero;stroke:none" /><path
             d="m 38.6289,111.508 316.691,0 0,316.691 -316.691,0 0,-316.691 z"
             inkscape:connector-curvature="0"
             id="path84"
             style="fill:#4566b2;fill-opacity:1;fill-rule:nonzero;stroke:none" /><path
             d="m 40.2461,113.125 313.457,0 0,313.457 -313.457,0 0,-313.457 z"
             inkscape:connector-curvature="0"
             id="path86"
             style="fill:#4667b2;fill-opacity:1;fill-rule:nonzero;stroke:none" /><path
             d="m 41.8633,114.742 310.223,0 0,310.223 -310.223,0 0,-310.223 z"
             inkscape:connector-curvature="0"
             id="path88"
             style="fill:#4768b3;fill-opacity:1;fill-rule:nonzero;stroke:none" /><path
             d="m 43.4766,116.355 306.996,0 0,306.996 -306.996,0 0,-306.996 z"
             inkscape:connector-curvature="0"
             id="path90"
             style="fill:#4968b4;fill-opacity:1;fill-rule:nonzero;stroke:none" /><path
             d="m 45.0938,117.973 303.762,0 0,303.762 -303.762,0 0,-303.762 z"
             inkscape:connector-curvature="0"
             id="path92"
             style="fill:#4a69b4;fill-opacity:1;fill-rule:nonzero;stroke:none" /><path
             d="m 46.7109,119.59 300.527,0 0,300.527 -300.527,0 0,-300.527 z"
             inkscape:connector-curvature="0"
             id="path94"
             style="fill:#4c6ab5;fill-opacity:1;fill-rule:nonzero;stroke:none" /><path
             d="m 48.3242,121.203 297.301,0 0,297.301 -297.301,0 0,-297.301 z"
             inkscape:connector-curvature="0"
             id="path96"
             style="fill:#4e6bb5;fill-opacity:1;fill-rule:nonzero;stroke:none" /><path
             d="m 49.9414,122.82 294.066,0 0,294.066 -294.066,0 0,-294.066 z"
             inkscape:connector-curvature="0"
             id="path98"
             style="fill:#4f6cb6;fill-opacity:1;fill-rule:nonzero;stroke:none" /><path
             d="m 51.5586,124.438 290.836,0 0,290.836 -290.836,0 0,-290.836 z"
             inkscape:connector-curvature="0"
             id="path100"
             style="fill:#506db7;fill-opacity:1;fill-rule:nonzero;stroke:none" /><path
             d="m 53.1719,126.051 287.605,0 0,287.605 -287.605,0 0,-287.605 z"
             inkscape:connector-curvature="0"
             id="path102"
             style="fill:#526eb7;fill-opacity:1;fill-rule:nonzero;stroke:none" /><path
             d="m 54.7891,127.668 284.371,0 0,284.371 -284.371,0 0,-284.371 z"
             inkscape:connector-curvature="0"
             id="path104"
             style="fill:#536fb8;fill-opacity:1;fill-rule:nonzero;stroke:none" /><path
             d="m 56.4023,129.281 281.145,0 0,281.145 -281.145,0 0,-281.145 z"
             inkscape:connector-curvature="0"
             id="path106"
             style="fill:#5470b9;fill-opacity:1;fill-rule:nonzero;stroke:none" /><path
             d="m 58.0195,130.898 277.91,0 0,277.91 -277.91,0 0,-277.91 z"
             inkscape:connector-curvature="0"
             id="path108"
             style="fill:#5671b9;fill-opacity:1;fill-rule:nonzero;stroke:none" /><path
             d="m 59.6367,132.516 274.676,0 0,274.676 -274.676,0 0,-274.676 z"
             inkscape:connector-curvature="0"
             id="path110"
             style="fill:#5872ba;fill-opacity:1;fill-rule:nonzero;stroke:none" /><path
             d="m 61.25,134.129 271.449,0 0,271.449 -271.449,0 0,-271.449 z"
             inkscape:connector-curvature="0"
             id="path112"
             style="fill:#5973bb;fill-opacity:1;fill-rule:nonzero;stroke:none" /><path
             d="m 62.8672,135.746 268.215,0 0,268.215 -268.215,0 0,-268.215 z"
             inkscape:connector-curvature="0"
             id="path114"
             style="fill:#5a74bb;fill-opacity:1;fill-rule:nonzero;stroke:none" /><path
             d="m 64.4844,137.363 264.98,0 0,264.98 -264.98,0 0,-264.98 z"
             inkscape:connector-curvature="0"
             id="path116"
             style="fill:#5c75bc;fill-opacity:1;fill-rule:nonzero;stroke:none" /><path
             d="m 66.0977,138.977 261.754,0 0,261.754 -261.754,0 0,-261.754 z"
             inkscape:connector-curvature="0"
             id="path118"
             style="fill:#5e76bd;fill-opacity:1;fill-rule:nonzero;stroke:none" /><path
             d="m 67.7148,140.594 258.52,0 0,258.52 -258.52,0 0,-258.52 z"
             inkscape:connector-curvature="0"
             id="path120"
             style="fill:#5f77bd;fill-opacity:1;fill-rule:nonzero;stroke:none" /><path
             d="m 69.3281,142.207 255.293,0 0,255.293 -255.293,0 0,-255.293 z"
             inkscape:connector-curvature="0"
             id="path122"
             style="fill:#6178be;fill-opacity:1;fill-rule:nonzero;stroke:none" /><path
             d="m 70.9453,143.824 252.059,0 0,252.059 -252.059,0 0,-252.059 z"
             inkscape:connector-curvature="0"
             id="path124"
             style="fill:#6279be;fill-opacity:1;fill-rule:nonzero;stroke:none" /><path
             d="m 72.5625,145.441 248.824,0 0,248.824 -248.824,0 0,-248.824 z"
             inkscape:connector-curvature="0"
             id="path126"
             style="fill:#647bbf;fill-opacity:1;fill-rule:nonzero;stroke:none" /><path
             d="m 74.1758,147.055 245.598,0 0,245.598 -245.598,0 0,-245.598 z"
             inkscape:connector-curvature="0"
             id="path128"
             style="fill:#657cc0;fill-opacity:1;fill-rule:nonzero;stroke:none" /><path
             d="m 75.793,148.672 242.363,0 0,242.363 -242.363,0 0,-242.363 z"
             inkscape:connector-curvature="0"
             id="path130"
             style="fill:#677dc0;fill-opacity:1;fill-rule:nonzero;stroke:none" /><path
             d="m 77.4102,150.289 239.129,0 0,239.129 -239.129,0 0,-239.129 z"
             inkscape:connector-curvature="0"
             id="path132"
             style="fill:#687ec1;fill-opacity:1;fill-rule:nonzero;stroke:none" /><path
             d="m 79.0234,151.902 235.902,0 0,235.902 -235.902,0 0,-235.902 z"
             inkscape:connector-curvature="0"
             id="path134"
             style="fill:#6a7fc2;fill-opacity:1;fill-rule:nonzero;stroke:none" /><path
             d="m 80.6406,153.52 232.668,0 0,232.668 -232.668,0 0,-232.668 z"
             inkscape:connector-curvature="0"
             id="path136"
             style="fill:#6c80c2;fill-opacity:1;fill-rule:nonzero;stroke:none" /><path
             d="m 82.2578,155.137 229.434,0 0,229.434 -229.434,0 0,-229.434 z"
             inkscape:connector-curvature="0"
             id="path138"
             style="fill:#6d81c3;fill-opacity:1;fill-rule:nonzero;stroke:none" /><path
             d="m 83.8711,156.75 226.207,0 0,226.207 -226.207,0 0,-226.207 z"
             inkscape:connector-curvature="0"
             id="path140"
             style="fill:#6f82c4;fill-opacity:1;fill-rule:nonzero;stroke:none" /><path
             d="m 85.4883,158.367 222.973,0 0,222.973 -222.973,0 0,-222.973 z"
             inkscape:connector-curvature="0"
             id="path142"
             style="fill:#7084c4;fill-opacity:1;fill-rule:nonzero;stroke:none" /><path
             d="m 87.1016,159.98 219.746,0 0,219.746 -219.746,0 0,-219.746 z"
             inkscape:connector-curvature="0"
             id="path144"
             style="fill:#7285c5;fill-opacity:1;fill-rule:nonzero;stroke:none" /><path
             d="m 88.7188,161.598 216.512,0 0,216.512 -216.512,0 0,-216.512 z"
             inkscape:connector-curvature="0"
             id="path146"
             style="fill:#7486c6;fill-opacity:1;fill-rule:nonzero;stroke:none" /><path
             d="m 90.3359,163.215 213.277,0 0,213.277 -213.277,0 0,-213.277 z"
             inkscape:connector-curvature="0"
             id="path148"
             style="fill:#7587c7;fill-opacity:1;fill-rule:nonzero;stroke:none" /><path
             d="m 91.9492,164.828 210.051,0 0,210.051 -210.051,0 0,-210.051 z"
             inkscape:connector-curvature="0"
             id="path150"
             style="fill:#7788c7;fill-opacity:1;fill-rule:nonzero;stroke:none" /><path
             d="m 93.5664,166.445 206.816,0 0,206.816 -206.816,0 0,-206.816 z"
             inkscape:connector-curvature="0"
             id="path152"
             style="fill:#788ac8;fill-opacity:1;fill-rule:nonzero;stroke:none" /><path
             d="m 95.1836,168.062 203.582,0 0,203.582 -203.582,0 0,-203.582 z"
             inkscape:connector-curvature="0"
             id="path154"
             style="fill:#7a8bc9;fill-opacity:1;fill-rule:nonzero;stroke:none" /><path
             d="m 96.7969,169.676 200.355,0 0,200.355 -200.355,0 0,-200.355 z"
             inkscape:connector-curvature="0"
             id="path156"
             style="fill:#7c8cc9;fill-opacity:1;fill-rule:nonzero;stroke:none" /><path
             d="m 98.4141,171.293 197.121,0 0,197.121 -197.121,0 0,-197.121 z"
             inkscape:connector-curvature="0"
             id="path158"
             style="fill:#7d8dca;fill-opacity:1;fill-rule:nonzero;stroke:none" /><path
             d="m 100.027,172.906 193.895,0 0,193.895 -193.895,0 0,-193.895 z"
             inkscape:connector-curvature="0"
             id="path160"
             style="fill:#7f8fcb;fill-opacity:1;fill-rule:nonzero;stroke:none" /><path
             d="m 101.645,174.523 190.66,0 0,190.66 -190.66,0 0,-190.66 z"
             inkscape:connector-curvature="0"
             id="path162"
             style="fill:#8190cc;fill-opacity:1;fill-rule:nonzero;stroke:none" /><path
             d="m 103.262,176.141 187.426,0 0,187.426 -187.426,0 0,-187.426 z"
             inkscape:connector-curvature="0"
             id="path164"
             style="fill:#8392cc;fill-opacity:1;fill-rule:nonzero;stroke:none" /><path
             d="m 104.875,177.754 184.199,0 0,184.199 -184.199,0 0,-184.199 z"
             inkscape:connector-curvature="0"
             id="path166"
             style="fill:#8593cd;fill-opacity:1;fill-rule:nonzero;stroke:none" /><path
             d="m 106.492,179.371 180.965,0 0,180.965 -180.965,0 0,-180.965 z"
             inkscape:connector-curvature="0"
             id="path168"
             style="fill:#8795ce;fill-opacity:1;fill-rule:nonzero;stroke:none" /><path
             d="m 108.109,180.988 177.73,0 0,177.73 -177.73,0 0,-177.73 z"
             inkscape:connector-curvature="0"
             id="path170"
             style="fill:#8996cf;fill-opacity:1;fill-rule:nonzero;stroke:none" /><path
             d="m 109.723,182.602 174.504,0 0,174.504 -174.504,0 0,-174.504 z"
             inkscape:connector-curvature="0"
             id="path172"
             style="fill:#8b98d0;fill-opacity:1;fill-rule:nonzero;stroke:none" /><path
             d="m 111.34,184.219 171.27,0 0,171.27 -171.27,0 0,-171.27 z"
             inkscape:connector-curvature="0"
             id="path174"
             style="fill:#8d99d0;fill-opacity:1;fill-rule:nonzero;stroke:none" /><path
             d="m 112.957,185.836 168.035,0 0,168.035 -168.035,0 0,-168.035 z"
             inkscape:connector-curvature="0"
             id="path176"
             style="fill:#8f9bd1;fill-opacity:1;fill-rule:nonzero;stroke:none" /><path
             d="m 114.57,187.449 164.809,0 0,164.809 -164.809,0 0,-164.809 z"
             inkscape:connector-curvature="0"
             id="path178"
             style="fill:#909cd2;fill-opacity:1;fill-rule:nonzero;stroke:none" /><path
             d="m 116.188,189.066 161.574,0 0,161.574 -161.574,0 0,-161.574 z"
             inkscape:connector-curvature="0"
             id="path180"
             style="fill:#929ed3;fill-opacity:1;fill-rule:nonzero;stroke:none" /><path
             d="m 117.801,190.68 158.348,0 0,158.348 -158.348,0 0,-158.348 z"
             inkscape:connector-curvature="0"
             id="path182"
             style="fill:#94a0d4;fill-opacity:1;fill-rule:nonzero;stroke:none" /><path
             d="m 119.418,192.297 155.113,0 0,155.113 -155.113,0 0,-155.113 z"
             inkscape:connector-curvature="0"
             id="path184"
             style="fill:#96a1d4;fill-opacity:1;fill-rule:nonzero;stroke:none" /><path
             d="m 121.035,193.914 151.879,0 0,151.879 -151.879,0 0,-151.879 z"
             inkscape:connector-curvature="0"
             id="path186"
             style="fill:#98a3d5;fill-opacity:1;fill-rule:nonzero;stroke:none" /><path
             d="m 122.648,195.527 148.652,0 0,148.652 -148.652,0 0,-148.652 z"
             inkscape:connector-curvature="0"
             id="path188"
             style="fill:#9aa4d6;fill-opacity:1;fill-rule:nonzero;stroke:none" /><path
             d="m 124.266,197.145 145.418,0 0,145.418 -145.418,0 0,-145.418 z"
             inkscape:connector-curvature="0"
             id="path190"
             style="fill:#9ca6d7;fill-opacity:1;fill-rule:nonzero;stroke:none" /><path
             d="m 125.883,198.762 142.184,0 0,142.184 -142.184,0 0,-142.184 z"
             inkscape:connector-curvature="0"
             id="path192"
             style="fill:#9ea8d8;fill-opacity:1;fill-rule:nonzero;stroke:none" /><path
             d="m 127.496,200.375 138.957,0 0,138.957 -138.957,0 0,-138.957 z"
             inkscape:connector-curvature="0"
             id="path194"
             style="fill:#a0a9d9;fill-opacity:1;fill-rule:nonzero;stroke:none" /><path
             d="m 129.113,201.992 135.723,0 0,135.723 -135.723,0 0,-135.723 z"
             inkscape:connector-curvature="0"
             id="path196"
             style="fill:#a2abd9;fill-opacity:1;fill-rule:nonzero;stroke:none" /><path
             d="m 130.73,203.609 132.488,0 0,132.488 -132.488,0 0,-132.488 z"
             inkscape:connector-curvature="0"
             id="path198"
             style="fill:#a4adda;fill-opacity:1;fill-rule:nonzero;stroke:none" /><path
             d="m 132.344,205.223 129.262,0 0,129.262 -129.262,0 0,-129.262 z"
             inkscape:connector-curvature="0"
             id="path200"
             style="fill:#a6afdb;fill-opacity:1;fill-rule:nonzero;stroke:none" /><path
             d="m 133.961,206.84 126.027,0 0,126.027 -126.027,0 0,-126.027 z"
             inkscape:connector-curvature="0"
             id="path202"
             style="fill:#a9b0dc;fill-opacity:1;fill-rule:nonzero;stroke:none" /><path
             d="m 135.574,208.453 122.801,0 0,122.801 -122.801,0 0,-122.801 z"
             inkscape:connector-curvature="0"
             id="path204"
             style="fill:#abb2dd;fill-opacity:1;fill-rule:nonzero;stroke:none" /><path
             d="m 137.191,210.07 119.566,0 0,119.566 -119.566,0 0,-119.566 z"
             inkscape:connector-curvature="0"
             id="path206"
             style="fill:#adb4de;fill-opacity:1;fill-rule:nonzero;stroke:none" /><path
             d="m 138.809,211.688 116.332,0 0,116.332 -116.332,0 0,-116.332 z"
             inkscape:connector-curvature="0"
             id="path208"
             style="fill:#afb6de;fill-opacity:1;fill-rule:nonzero;stroke:none" /><path
             d="m 140.422,213.301 113.105,0 0,113.105 -113.105,0 0,-113.105 z"
             inkscape:connector-curvature="0"
             id="path210"
             style="fill:#b1b7df;fill-opacity:1;fill-rule:nonzero;stroke:none" /><path
             d="m 142.039,214.918 109.871,0 0,109.871 -109.871,0 0,-109.871 z"
             inkscape:connector-curvature="0"
             id="path212"
             style="fill:#b3b9e0;fill-opacity:1;fill-rule:nonzero;stroke:none" /><path
             d="m 143.656,216.535 106.637,0 0,106.637 -106.637,0 0,-106.637 z"
             inkscape:connector-curvature="0"
             id="path214"
             style="fill:#b5bbe1;fill-opacity:1;fill-rule:nonzero;stroke:none" /><path
             d="m 145.27,218.148 103.41,0 0,103.41 -103.41,0 0,-103.41 z"
             inkscape:connector-curvature="0"
             id="path216"
             style="fill:#b7bde2;fill-opacity:1;fill-rule:nonzero;stroke:none" /><path
             d="m 146.887,219.766 100.176,0 0,100.176 -100.176,0 0,-100.176 z"
             inkscape:connector-curvature="0"
             id="path218"
             style="fill:#b9bfe3;fill-opacity:1;fill-rule:nonzero;stroke:none" /><path
             d="m 148.5,221.379 96.9492,0 0,96.9492 -96.9492,0 0,-96.9492 z"
             inkscape:connector-curvature="0"
             id="path220"
             style="fill:#bbc0e4;fill-opacity:1;fill-rule:nonzero;stroke:none" /><path
             d="m 150.117,222.996 93.7148,0 0,93.7148 -93.7148,0 0,-93.7148 z"
             inkscape:connector-curvature="0"
             id="path222"
             style="fill:#bdc2e4;fill-opacity:1;fill-rule:nonzero;stroke:none" /><path
             d="m 151.734,224.613 90.4805,0 0,90.4805 -90.4805,0 0,-90.4805 z"
             inkscape:connector-curvature="0"
             id="path224"
             style="fill:#c0c4e5;fill-opacity:1;fill-rule:nonzero;stroke:none" /><path
             d="m 153.348,226.227 87.2539,0 0,87.2539 -87.2539,0 0,-87.2539 z"
             inkscape:connector-curvature="0"
             id="path226"
             style="fill:#c2c6e6;fill-opacity:1;fill-rule:nonzero;stroke:none" /><path
             d="m 154.965,227.844 84.0195,0 0,84.0195 -84.0195,0 0,-84.0195 z"
             inkscape:connector-curvature="0"
             id="path228"
             style="fill:#c4c8e7;fill-opacity:1;fill-rule:nonzero;stroke:none" /><path
             d="m 156.582,229.461 80.7852,0 0,80.7852 -80.7852,0 0,-80.7852 z"
             inkscape:connector-curvature="0"
             id="path230"
             style="fill:#c6cae8;fill-opacity:1;fill-rule:nonzero;stroke:none" /><path
             d="m 158.195,231.074 77.5586,0 0,77.5586 -77.5586,0 0,-77.5586 z"
             inkscape:connector-curvature="0"
             id="path232"
             style="fill:#c8cce9;fill-opacity:1;fill-rule:nonzero;stroke:none" /><path
             d="m 159.812,232.691 74.3242,0 0,74.3242 -74.3242,0 0,-74.3242 z"
             inkscape:connector-curvature="0"
             id="path234"
             style="fill:#caceea;fill-opacity:1;fill-rule:nonzero;stroke:none" /><path
             d="m 161.43,234.309 71.0898,0 0,71.0898 -71.0898,0 0,-71.0898 z"
             inkscape:connector-curvature="0"
             id="path236"
             style="fill:#cdd0eb;fill-opacity:1;fill-rule:nonzero;stroke:none" /><path
             d="m 163.043,235.922 67.8633,0 0,67.8633 -67.8633,0 0,-67.8633 z"
             inkscape:connector-curvature="0"
             id="path238"
             style="fill:#cfd2ec;fill-opacity:1;fill-rule:nonzero;stroke:none" /><path
             d="m 164.66,237.539 64.6289,0 0,64.6289 -64.6289,0 0,-64.6289 z"
             inkscape:connector-curvature="0"
             id="path240"
             style="fill:#d1d4ec;fill-opacity:1;fill-rule:nonzero;stroke:none" /><path
             d="m 166.273,239.152 61.4023,0 0,61.4023 -61.4023,0 0,-61.4023 z"
             inkscape:connector-curvature="0"
             id="path242"
             style="fill:#d3d6ed;fill-opacity:1;fill-rule:nonzero;stroke:none" /><path
             d="m 167.891,240.77 58.168,0 0,58.168 -58.168,0 0,-58.168 z"
             inkscape:connector-curvature="0"
             id="path244"
             style="fill:#d6d8ee;fill-opacity:1;fill-rule:nonzero;stroke:none" /><path
             d="m 169.508,242.387 54.9336,0 0,54.9336 -54.9336,0 0,-54.9336 z"
             inkscape:connector-curvature="0"
             id="path246"
             style="fill:#d8daef;fill-opacity:1;fill-rule:nonzero;stroke:none" /><path
             d="m 171.121,244 51.707,0 0,51.707 -51.707,0 0,-51.707 z"
             inkscape:connector-curvature="0"
             id="path248"
             style="fill:#dadcf0;fill-opacity:1;fill-rule:nonzero;stroke:none" /><path
             d="m 172.738,245.617 48.4727,0 0,48.4727 -48.4727,0 0,-48.4727 z"
             inkscape:connector-curvature="0"
             id="path250"
             style="fill:#dcdef1;fill-opacity:1;fill-rule:nonzero;stroke:none" /><path
             d="m 174.355,247.234 45.2383,0 0,45.2383 -45.2383,0 0,-45.2383 z"
             inkscape:connector-curvature="0"
             id="path252"
             style="fill:#dfe0f2;fill-opacity:1;fill-rule:nonzero;stroke:none" /><path
             d="m 175.969,248.848 42.0117,0 0,42.0117 -42.0117,0 0,-42.0117 z"
             inkscape:connector-curvature="0"
             id="path254"
             style="fill:#e1e2f3;fill-opacity:1;fill-rule:nonzero;stroke:none" /><path
             d="m 177.586,250.465 38.7773,0 0,38.7773 -38.7773,0 0,-38.7773 z"
             inkscape:connector-curvature="0"
             id="path256"
             style="fill:#e3e5f4;fill-opacity:1;fill-rule:nonzero;stroke:none" /><path
             d="m 179.203,252.082 35.5469,0 0,35.5469 -35.5469,0 0,-35.5469 z"
             inkscape:connector-curvature="0"
             id="path258"
             style="fill:#e5e7f5;fill-opacity:1;fill-rule:nonzero;stroke:none" /><path
             d="m 180.816,253.695 32.3164,0 0,32.3164 -32.3164,0 0,-32.3164 z"
             inkscape:connector-curvature="0"
             id="path260"
             style="fill:#e8e9f6;fill-opacity:1;fill-rule:nonzero;stroke:none" /><path
             d="m 182.434,255.312 29.082,0 0,29.082 -29.082,0 0,-29.082 z"
             inkscape:connector-curvature="0"
             id="path262"
             style="fill:#eaebf7;fill-opacity:1;fill-rule:nonzero;stroke:none" /><path
             d="m 184.047,256.926 25.8555,0 0,25.8555 -25.8555,0 0,-25.8555 z"
             inkscape:connector-curvature="0"
             id="path264"
             style="fill:#ecedf8;fill-opacity:1;fill-rule:nonzero;stroke:none" /><path
             d="m 185.664,258.543 22.6211,0 0,22.6211 -22.6211,0 0,-22.6211 z"
             inkscape:connector-curvature="0"
             id="path266"
             style="fill:#efeff8;fill-opacity:1;fill-rule:nonzero;stroke:none" /><path
             d="m 187.281,260.16 19.3867,0 0,19.3867 -19.3867,0 0,-19.3867 z"
             inkscape:connector-curvature="0"
             id="path268"
             style="fill:#f1f2f9;fill-opacity:1;fill-rule:nonzero;stroke:none" /><path
             d="m 188.895,261.773 16.1602,0 0,16.1602 -16.1602,0 0,-16.1602 z"
             inkscape:connector-curvature="0"
             id="path270"
             style="fill:#f3f4fa;fill-opacity:1;fill-rule:nonzero;stroke:none" /><path
             d="m 190.512,263.391 12.9258,0 0,12.9258 -12.9258,0 0,-12.9258 z"
             inkscape:connector-curvature="0"
             id="path272"
             style="fill:#f6f6fb;fill-opacity:1;fill-rule:nonzero;stroke:none" /><path
             d="m 192.129,265.008 9.69141,0 0,9.69141 -9.69141,0 0,-9.69141 z"
             inkscape:connector-curvature="0"
             id="path274"
             style="fill:#f8f8fc;fill-opacity:1;fill-rule:nonzero;stroke:none" /><path
             d="m 193.742,266.621 6.46484,0 0,6.46484 -6.46484,0 0,-6.46484 z"
             inkscape:connector-curvature="0"
             id="path276"
             style="fill:#fbfbfd;fill-opacity:1;fill-rule:nonzero;stroke:none" /><path
             d="m 195.359,268.238 3.23047,0 0,3.23047 -3.23047,0 0,-3.23047 z"
             inkscape:connector-curvature="0"
             id="path278"
             style="fill:#fdfdfe;fill-opacity:1;fill-rule:nonzero;stroke:none" /></g></g><path
         d="M 204.703,446.434 190.996,287.992 70.8555,291.512 189.176,253.527 209.527,44.4648 224.664,252.539 443.855,252.363 224.879,285.438 204.703,446.434"
         inkscape:connector-curvature="0"
         id="path280"
         style="fill:#ffffff;fill-opacity:1;fill-rule:evenodd;stroke:none" /><path
         d="m 273,183.762 c 0.215,-0.246 0.41,-0.485 0.609,-0.731 0.18,-0.258 0.364,-0.515 0.547,-0.789 0.27,-0.379 0.547,-0.793 0.817,-1.246 0.289,-0.441 0.519,-0.867 0.703,-1.293 0.148,-0.348 0.316,-0.711 0.515,-1.078 0.18,-0.379 0.321,-0.742 0.411,-1.09 0.089,-0.367 0.168,-0.715 0.21,-1.082 0.032,-0.348 0.047,-0.668 0.016,-0.926 -0.031,-0.367 -0.078,-0.73 -0.137,-1.109 -0.062,-0.395 -0.121,-0.758 -0.179,-1.125 -0.078,-0.715 -0.289,-1.547 -0.594,-2.504 -0.32,-0.973 -0.52,-1.797 -0.609,-2.48 -0.059,-0.379 -0.106,-0.864 -0.149,-1.442 -0.051,-0.578 -0.094,-1.062 -0.156,-1.441 -0.09,-0.535 -0.227,-1.082 -0.391,-1.614 -0.187,-0.531 -0.336,-1.062 -0.457,-1.593 -0.062,-0.246 -0.078,-0.489 -0.062,-0.746 0.015,-0.243 -0.016,-0.485 -0.074,-0.727 -0.141,-0.684 -0.336,-1.387 -0.579,-2.098 -0.226,-0.714 -0.441,-1.398 -0.625,-2.082 -0.089,-0.336 -0.136,-0.636 -0.148,-0.941 -0.02,-0.289 -0.047,-0.594 -0.109,-0.895 -0.153,-0.625 -0.426,-1.628 -0.821,-2.996 -0.41,-1.382 -0.652,-2.339 -0.742,-2.871 -0.094,-0.457 -0.226,-0.925 -0.426,-1.425 -0.183,-0.504 -0.347,-1.02 -0.457,-1.52 -0.058,-0.258 -0.031,-0.336 0.11,-0.215 0.132,0.109 0.164,0.047 0.101,-0.226 -0.148,-0.594 -0.347,-1.172 -0.621,-1.731 -0.258,-0.566 -0.473,-1.172 -0.621,-1.797 -0.121,-0.527 -0.215,-1.121 -0.305,-1.777 -0.093,-0.649 -0.199,-1.258 -0.32,-1.82 -0.09,-0.473 -0.301,-1.184 -0.637,-2.145 -0.347,-0.941 -0.578,-1.641 -0.699,-2.078 -0.105,-0.426 -0.215,-0.852 -0.305,-1.293 -0.089,-0.453 -0.168,-0.867 -0.226,-1.246 -0.121,-0.684 -0.258,-1.352 -0.426,-2.008 -0.152,-0.652 -0.273,-1.242 -0.336,-1.777 -0.027,-0.239 -0.016,-0.5 0.047,-0.758 0.059,-0.274 0.047,-0.485 -0.047,-0.668 -0.105,-0.274 -0.258,-0.563 -0.441,-0.899 -0.18,-0.316 -0.395,-0.558 -0.668,-0.714 -0.317,-0.196 -0.711,-0.516 -1.153,-0.954 -0.441,-0.425 -0.793,-0.667 -1.019,-0.73 -0.774,-0.215 -1.184,-0.016 -1.242,0.563 -0.063,0.574 -0.094,1.078 -0.094,1.535 0,0.441 -0.031,0.879 -0.063,1.304 -0.043,0.442 -0.058,0.914 -0.031,1.446 0.031,0.547 -0.074,1.062 -0.301,1.562 -0.246,0.504 -0.336,1.063 -0.273,1.688 0.059,0.625 0.215,1.273 0.473,1.945 0.238,0.668 0.422,1.352 0.5,2.066 0.089,0.59 0.195,1.321 0.285,2.188 0.109,0.851 0.23,1.594 0.336,2.215 0.152,0.898 0.425,1.84 0.804,2.859 0.379,1.004 0.657,2.008 0.805,2.981 0.184,1.152 0.215,2.125 0.109,2.914 -0.109,0.789 -0.062,1.761 0.106,2.918 0.121,0.832 0.379,2.004 0.758,3.539 0.398,1.535 0.64,2.675 0.761,3.449 0.122,0.715 0.196,1.457 0.227,2.23 0.031,0.762 0.105,1.508 0.258,2.223 0.183,0.805 0.441,1.684 0.762,2.641 0.32,0.972 0.531,1.808 0.621,2.523 0.125,0.836 0.23,1.777 0.304,2.856 0.09,1.062 0.168,1.941 0.227,2.656 0.183,2.144 0.258,3.89 0.246,5.258 -0.016,1.367 -0.289,2.129 -0.82,2.281 -0.215,0.043 -0.442,0.074 -0.715,0.058 -0.258,-0.015 -0.52,0.016 -0.762,0.11 -0.258,0.09 -0.516,0.226 -0.742,0.422 -0.246,0.195 -0.504,0.32 -0.762,0.383 -0.394,0.089 -0.82,0.148 -1.289,0.195 -0.488,0.047 -0.926,0.121 -1.34,0.199 -0.422,0.09 -0.836,0.211 -1.273,0.332 -0.426,0.137 -0.852,0.246 -1.262,0.289 -0.531,0.059 -0.988,0.059 -1.336,0 -0.363,-0.043 -0.808,-0.074 -1.336,-0.074 -0.277,0 -0.519,-0.063 -0.73,-0.184 -0.231,-0.121 -0.473,-0.183 -0.746,-0.183 -0.352,0 -0.711,0.062 -1.063,0.152 -0.363,0.109 -0.715,0.168 -1.066,0.168 -0.211,0 -0.469,0.016 -0.758,0.059 -0.305,0.05 -0.547,0.062 -0.762,0.062 -0.359,0 -0.636,0 -0.847,0 -0.196,0 -0.473,0 -0.805,0 -0.199,0 -0.426,0 -0.684,0 -0.257,0 -0.457,0 -0.593,0 -0.09,-0.531 -0.2,-1.078 -0.321,-1.656 -0.121,-0.59 -0.226,-1.156 -0.316,-1.715 -0.168,-1.051 -0.32,-1.945 -0.442,-2.719 -0.121,-0.777 -0.242,-1.687 -0.394,-2.769 -0.09,-0.711 -0.059,-1.094 0.09,-1.168 0.137,-0.074 0.183,-0.473 0.121,-1.188 -0.074,-0.968 -0.301,-2.293 -0.637,-3.933 -0.347,-1.657 -0.547,-2.93 -0.605,-3.856 -0.094,-1.062 -0.11,-2.008 -0.094,-2.828 0.031,-0.82 0.031,-1.746 0,-2.781 -0.047,-1.152 -0.121,-2.262 -0.215,-3.309 -0.09,-1.062 -0.137,-2.097 -0.137,-3.101 0,-0.684 -0.058,-1.399 -0.179,-2.157 -0.11,-0.761 -0.168,-1.425 -0.168,-2.019 0,-0.715 0.078,-1.402 0.246,-2.051 0.148,-0.652 0.258,-1.25 0.285,-1.777 0.062,-0.656 0.273,-0.973 0.641,-0.961 0.379,0.019 0.742,0.156 1.089,0.414 0.411,0.332 0.809,0.621 1.188,0.894 0.363,0.274 0.621,0.348 0.773,0.231 0.442,-0.399 0,-1.84 -1.32,-4.363 -1.305,-2.52 -2.355,-4.192 -3.133,-4.996 -0.179,-0.168 -0.347,-0.426 -0.527,-0.747 -0.184,-0.335 -0.383,-0.578 -0.578,-0.714 -0.274,-0.184 -0.594,-0.379 -0.957,-0.606 -0.379,-0.23 -0.746,-0.305 -1.094,-0.246 -0.715,0.121 -1.262,0.352 -1.641,0.715 -0.398,0.351 -0.73,1.094 -1.035,2.219 -0.226,1.019 -0.394,2.461 -0.484,4.328 -0.09,1.867 -0.11,4.211 -0.047,7.035 0,0.883 0.047,1.84 0.137,2.84 0.09,1.019 0.152,2.054 0.183,3.117 0.016,0.457 0.063,0.91 0.106,1.41 0.047,0.488 0.058,0.992 0.058,1.488 0.032,1.34 0.063,2.602 0.094,3.786 0.031,1.183 0.106,2.492 0.227,3.921 0.062,0.653 0.136,1.231 0.246,1.731 0.105,0.5 0.195,1.078 0.285,1.73 0.152,0.957 0.305,2.004 0.473,3.145 0.152,1.141 0.289,2.156 0.382,3.055 0.164,1.187 0.328,2.203 0.485,3.07 0.152,0.848 0.301,1.82 0.484,2.887 0.094,0.593 0.184,1.183 0.289,1.777 0.106,0.594 0.211,1.168 0.332,1.699 -0.258,0 -0.547,-0.012 -0.816,-0.031 -0.289,-0.012 -0.547,-0.012 -0.774,-0.012 -0.457,0 -0.882,-0.047 -1.324,-0.137 -0.426,-0.093 -0.82,-0.14 -1.168,-0.14 -0.687,-0.027 -1.539,0 -2.539,0.094 -0.152,0.062 -0.289,0.195 -0.426,0.425 -0.136,0.227 -0.183,0.547 -0.152,0.957 0,0.211 0.078,0.469 0.246,0.805 0.149,0.32 0.301,0.668 0.406,1.016 0.063,0.215 0.11,0.426 0.141,0.672 0.027,0.242 0.07,0.453 0.133,0.668 0.414,1.093 0.957,2.078 1.613,2.929 0.637,0.867 1.305,1.34 1.988,1.43 0.153,0 0.395,0 0.746,0.016 0.336,0.015 0.774,0.027 1.305,0.027 0.531,0 1.141,0 1.809,0 0.668,0 1.383,0 2.156,0 0.562,0.902 1.156,1.566 1.762,2.055 0.609,0.468 1.187,0.746 1.765,0.789 0.379,0.031 0.668,-0.164 0.864,-0.621 0.183,-0.446 0.23,-1.219 0.109,-2.313 0.289,0 0.547,0 0.727,-0.012 0.199,-0.019 0.468,-0.031 0.835,-0.031 0.442,0 0.942,-0.016 1.504,-0.062 0.563,-0.043 1.094,-0.075 1.614,-0.075 0.5,0 0.937,-0.031 1.304,-0.089 0.364,-0.047 0.805,-0.094 1.309,-0.125 0.652,-0.032 1.184,-0.09 1.578,-0.165 0.41,-0.062 0.926,-0.156 1.551,-0.246 0.5,-0.058 1,-0.105 1.5,-0.168 0.504,-0.058 0.992,-0.132 1.43,-0.226 0.273,-0.063 0.546,-0.074 0.851,-0.043 0.289,0.027 0.563,0.012 0.789,-0.047 0.336,-0.094 0.641,-0.211 0.91,-0.352 0.289,-0.148 0.52,-0.242 0.7,-0.273 0.183,-0.031 0.382,-0.121 0.625,-0.289 0.226,-0.164 0.484,-0.332 0.761,-0.516 0.258,-0.164 0.559,-0.41 0.906,-0.683 0.336,-0.289 0.672,-0.61 1.004,-0.957 0.168,-0.211 0.395,-0.426 0.672,-0.668 0.258,-0.242 0.516,-0.485 0.742,-0.762 0.243,-0.258 0.5,-0.559 0.762,-0.879 0.274,-0.336 0.516,-0.637 0.758,-0.941"
         inkscape:connector-curvature="0"
         id="path282"
         style="fill:#ffffff;fill-opacity:1;fill-rule:nonzero;stroke:none" /><path
         d="m 277.832,144.914 c 0.352,0.621 0.82,1.246 1.383,1.883 0.562,0.641 1.262,1.293 2.125,1.976 0.094,0.594 0.183,1.184 0.277,1.762 0.074,0.578 0.137,1.168 0.164,1.762 0.094,0.41 0.231,0.894 0.426,1.461 0.195,0.574 0.414,1.183 0.652,1.836 0.258,0.656 0.625,1.461 1.082,2.445 0.469,0.973 1.063,2.066 1.809,3.297 0.621,0.668 1.273,1.43 1.957,2.25 0.684,0.805 1.367,1.625 2.051,2.461 0.32,0.273 0.683,0.515 1.066,0.762 0.379,0.238 0.774,0.496 1.153,0.804 0.367,0.121 0.757,0.211 1.199,0.301 0.457,0.094 0.945,0.137 1.472,0.137 0.747,0 1.34,-0.074 1.809,-0.227 0.457,-0.136 0.836,-0.394 1.125,-0.746 0.215,-0.242 0.414,-0.605 0.609,-1.074 0.196,-0.477 0.379,-1.051 0.559,-1.734 0.078,-0.59 0.184,-1.247 0.309,-1.961 0,0.183 -0.047,0.109 -0.157,-0.227 -0.101,-0.32 -0.257,-0.836 -0.468,-1.551 l -0.395,-1.429 c -0.426,-1.426 -1.351,-3.067 -2.812,-4.938 -1.457,-1.867 -3.418,-4.012 -5.879,-6.406 -0.2,-0.215 -0.379,-0.477 -0.532,-0.778 -0.152,-0.32 -0.214,-0.652 -0.214,-1 0,-0.625 0.109,-1.187 0.336,-1.66 0.21,-0.468 0.531,-0.82 0.957,-1.062 0.226,-0.18 0.609,-0.363 1.125,-0.531 0.531,-0.184 1.136,-0.352 1.851,-0.489 1.156,0.078 2.219,0.278 3.16,0.578 0.961,0.289 1.809,0.653 2.555,1.067 0.137,0.09 0.379,0.211 0.699,0.379 0.332,0.168 0.653,0.379 0.985,0.652 0.378,-0.867 0.73,-1.641 1.019,-2.324 0.305,-0.684 0.531,-1.278 0.715,-1.778 -1.684,-1.656 -3.223,-2.917 -4.606,-3.769 -1.378,-0.836 -2.656,-1.262 -3.812,-1.262 -0.469,-0.301 -1.016,-0.515 -1.625,-0.652 -0.609,-0.137 -1.324,-0.195 -2.156,-0.195 -1.094,0 -2.067,0.168 -2.918,0.488 -0.852,0.328 -1.551,0.805 -2.11,1.426 -0.308,0.304 -0.593,0.73 -0.898,1.32 -0.289,0.578 -0.609,1.262 -0.93,2.066 -0.269,0.653 -0.515,1.141 -0.758,1.446 -0.242,0.316 -0.5,0.468 -0.804,0.468 -0.227,0 -0.5,-0.105 -0.805,-0.332 -0.285,-0.226 -0.621,-0.562 -0.973,-1.004 -0.121,0.442 -0.316,1.004 -0.621,1.653 -0.289,0.656 -0.687,1.461 -1.156,2.449 z m 14.234,14.445 c -0.652,0 -1.519,-0.847 -2.625,-2.55 -1.097,-1.715 -1.644,-2.961 -1.644,-3.766 0,-0.184 0.031,-0.305 0.109,-0.379 0.074,-0.078 0.227,-0.109 0.469,-0.109 0.336,0 0.594,0.168 0.805,0.515 0.199,0.336 0.394,0.657 0.578,0.957 0.32,0.289 0.64,0.61 0.957,0.961 0.305,0.332 0.609,0.668 0.914,0.985 0.348,0.425 0.621,0.836 0.789,1.25 0.184,0.422 0.273,0.832 0.273,1.242 0,0.273 -0.046,0.488 -0.152,0.656 -0.105,0.168 -0.258,0.238 -0.473,0.238"
         inkscape:connector-curvature="0"
         id="path284"
         style="fill:#ffffff;fill-opacity:1;fill-rule:nonzero;stroke:none" /><path
         d="m 299.754,144.914 c 0.184,0.211 0.379,0.488 0.625,0.82 0.242,0.348 0.5,0.715 0.805,1.141 1.304,1.625 2.566,3.082 3.796,4.375 1.231,1.289 2.403,2.43 3.497,3.449 0.562,0.531 1.246,1.215 2.05,2.067 0.789,0.836 1.731,1.808 2.793,2.902 1.067,0.426 2.25,0.894 3.528,1.426 0.789,0 1.382,-0.258 1.777,-0.774 0.379,-0.515 0.578,-1.277 0.578,-2.25 0,-0.836 -0.078,-1.73 -0.199,-2.687 -0.137,-0.957 -0.32,-1.945 -0.563,-2.965 -0.273,-0.789 -0.484,-1.563 -0.668,-2.309 0,-0.195 0.047,-0.363 0.137,-0.472 0.09,-0.09 0.227,-0.149 0.438,-0.149 0.445,0.211 1.308,0.953 2.586,2.231 1.277,1.277 2.945,3.054 5.031,5.336 1.777,1.957 3.34,3.418 4.676,4.39 1.324,0.953 2.402,1.442 3.207,1.442 0.847,0 1.488,-0.321 1.882,-0.957 0.395,-0.637 0.61,-1.578 0.61,-2.828 0,-1.809 -0.137,-3.555 -0.41,-5.223 -0.262,-1.672 -0.731,-3.281 -1.383,-4.832 -0.109,-0.289 -0.184,-0.547 -0.215,-0.742 -0.031,-0.215 -0.043,-0.414 -0.043,-0.594 0,-0.199 0.18,-0.399 0.531,-0.578 0.242,0.211 0.516,0.515 0.821,0.894 0.316,0.379 0.683,0.883 1.093,1.477 0.684,0.558 1.368,1.125 2.051,1.684 0.684,0.562 1.426,1.14 2.219,1.734 0.836,0.652 1.687,1.152 2.535,1.488 0.867,0.348 1.715,0.516 2.539,0.516 0.149,0 0.305,-0.047 0.457,-0.137 0.137,-0.09 0.285,-0.199 0.438,-0.305 0.683,-0.589 1.246,-1.136 1.687,-1.625 0.457,-0.5 0.758,-0.91 0.942,-1.277 1.156,-2.367 2.187,-4.144 3.101,-5.316 0.895,-1.168 1.684,-1.746 2.367,-1.746 0.153,0 0.305,0.031 0.457,0.105 0.137,0.074 0.285,0.168 0.442,0.289 0.683,-1.457 1.261,-2.828 1.73,-4.102 -1.062,-0.835 -2.019,-1.457 -2.855,-1.898 -0.821,-0.426 -1.551,-0.641 -2.172,-0.641 -2.055,0 -4.164,1.321 -6.352,3.981 -2.172,2.66 -3.843,3.984 -5,3.984 -1.547,0 -4.113,-2.265 -7.699,-6.824 -3.586,-4.559 -5.836,-6.836 -6.715,-6.836 -0.457,0 -1.051,0.043 -1.793,0.137 -0.23,0.09 -0.41,0.273 -0.535,0.547 -0.121,0.289 -0.18,0.621 -0.18,1 0,0.457 0.09,1.035 0.274,1.765 0.18,0.727 0.41,1.578 0.715,2.551 0.379,1.262 0.699,2.25 0.925,2.992 0.243,0.746 0.379,1.262 0.411,1.551 0.089,0.395 0.211,1.152 0.379,2.281 0.152,1.121 0.382,2.625 0.64,4.493 0,0.32 -0.094,0.578 -0.258,0.746 -0.187,0.183 -0.398,0.273 -0.625,0.273 -0.214,0 -0.441,-0.059 -0.699,-0.195 -0.242,-0.137 -0.531,-0.352 -0.867,-0.657 -0.348,-0.378 -0.746,-0.757 -1.184,-1.152 -0.425,-0.379 -1.109,-0.926 -2.066,-1.64 -1.035,-1.188 -2.098,-2.403 -3.176,-3.633 -1.094,-1.231 -2.187,-2.473 -3.312,-3.723 -1.793,-2.066 -3.207,-3.598 -4.254,-4.602 -1.063,-0.988 -1.731,-1.488 -2.02,-1.488 -0.894,0 -1.562,0.106 -2.035,0.305 -0.457,0.211 -0.687,0.531 -0.687,0.941 0,0.969 0.535,3.024 1.582,6.106 1.05,3.097 1.582,5.289 1.582,6.562 0,0.215 -0.078,0.379 -0.196,0.516 -0.14,0.141 -0.308,0.199 -0.519,0.199 -0.352,0 -0.774,-0.199 -1.278,-0.605 -0.484,-0.399 -1.031,-1.02 -1.656,-1.887 -0.422,-0.469 -0.926,-1.016 -1.519,-1.641 -0.59,-0.621 -1.321,-1.351 -2.172,-2.172 -0.09,-0.242 -0.215,-0.468 -0.363,-0.699 -0.153,-0.211 -0.305,-0.426 -0.489,-0.637 -0.121,0.442 -0.316,1.004 -0.621,1.653 -0.289,0.656 -0.683,1.461 -1.156,2.449"
         inkscape:connector-curvature="0"
         id="path286"
         style="fill:#ffffff;fill-opacity:1;fill-rule:nonzero;stroke:none" /><path
         d="m 355.453,144.914 c 0.59,0.777 1.352,1.684 2.293,2.781 0.926,1.078 2.066,2.309 3.402,3.692 0.09,0.273 0.215,0.593 0.348,0.957 0.156,0.379 0.383,0.847 0.672,1.414 1.582,2.336 2.992,4.601 4.238,6.758 1.246,2.172 2.309,4.285 3.203,6.32 0.262,0.519 0.547,1.141 0.868,1.898 0.304,0.762 0.699,1.61 1.171,2.555 0.426,0.715 0.832,1.262 1.231,1.656 0.394,0.379 0.789,0.578 1.183,0.578 0.594,0 1.02,-0.261 1.309,-0.761 0.289,-0.5 0.426,-1.293 0.426,-2.356 0,-0.59 -0.516,-2.523 -1.535,-5.758 -1.035,-3.25 -2.555,-7.839 -4.574,-13.734 -0.532,-1.426 -1.122,-3.418 -1.778,-5.984 -0.652,-2.567 -1.41,-5.774 -2.262,-9.602 -0.093,-0.562 -0.183,-1.215 -0.289,-1.961 -0.109,-0.726 -0.257,-1.594 -0.472,-2.582 -0.5,-1.898 -0.867,-3.402 -1.067,-4.527 -0.211,-1.141 -0.3,-1.852 -0.269,-2.188 l 0.179,-0.347 c 0.153,0.089 0.321,0.363 0.504,0.832 0.196,0.488 0.364,1.156 0.516,2.05 0.184,0.809 0.32,1.477 0.41,2.024 0.078,0.547 0.09,1.004 0.031,1.367 0.653,1.715 1.43,3.918 2.325,6.609 0.882,2.672 1.925,5.801 3.117,9.356 0.469,0.867 1.015,1.914 1.621,3.148 0.609,1.231 1.25,2.688 1.93,4.371 0.683,0.657 1.308,1.141 1.855,1.446 0.547,0.32 1.02,0.472 1.399,0.472 0.832,0 1.609,-0.23 2.324,-0.668 0.715,-0.445 1.367,-1.093 1.957,-1.945 0.136,-0.215 0.414,-0.746 0.824,-1.582 0.395,-0.851 0.941,-1.988 1.625,-3.445 0.379,-0.883 0.789,-1.582 1.195,-2.067 0.414,-0.488 0.825,-0.746 1.203,-0.777 l 1.868,-4.102 c -0.153,-0.031 -0.547,-0.136 -1.184,-0.304 -0.637,-0.18 -1.551,-0.379 -2.734,-0.594 l -3.024,1.125 c -0.746,0.199 -1.64,0.93 -2.687,2.172 -1.067,1.25 -1.914,1.961 -2.571,2.172 -0.621,-0.438 -1.289,-1.321 -2.004,-2.625 -0.714,-1.309 -1.429,-2.996 -2.171,-5.074 -0.184,-0.473 -0.411,-0.989 -0.7,-1.536 -0.273,-0.546 -0.562,-1.171 -0.867,-1.886 -0.18,-1.121 -0.379,-2.215 -0.621,-3.25 -0.379,-0.895 -0.809,-2.02 -1.246,-3.403 -0.441,-1.382 -0.914,-3.023 -1.43,-4.921 -0.136,-0.653 -0.515,-1.626 -1.121,-2.93 -0.609,-1.309 -0.972,-2.297 -1.094,-2.981 -0.062,-0.425 -0.187,-0.972 -0.382,-1.656 -0.196,-0.683 -0.489,-1.473 -0.868,-2.402 -0.683,-1.184 -1.304,-2.078 -1.867,-2.684 -0.562,-0.613 -1.047,-0.914 -1.429,-0.914 -0.895,0 -1.563,0.426 -2.004,1.293 -0.442,0.863 -0.668,2.141 -0.668,3.824 0,2.555 0.152,5.352 0.441,8.418 0.305,3.055 0.742,6.336 1.336,9.828 0.18,1.02 0.379,2.036 0.578,3.071 0.211,1.05 0.426,2.097 0.621,3.16 0.274,1.246 0.457,2.398 0.563,3.433 0.105,1.032 0.125,1.977 0.062,2.797 -0.289,-0.078 -0.793,-0.457 -1.488,-1.125 -0.703,-0.668 -1.582,-1.672 -2.645,-3.008 -0.125,0.442 -0.32,1.004 -0.621,1.653 -0.289,0.656 -0.687,1.461 -1.156,2.449"
         inkscape:connector-curvature="0"
         id="path288"
         style="fill:#ffffff;fill-opacity:1;fill-rule:nonzero;stroke:none" /><path
         d="m 431.996,187.227 c 0,-0.442 0,-0.93 0,-1.461 0,-0.532 -0.047,-1.032 -0.137,-1.473 -0.031,-0.242 -0.121,-0.473 -0.289,-0.715 -0.168,-0.226 -0.277,-0.441 -0.336,-0.621 -0.183,-0.504 -0.41,-0.883 -0.714,-1.141 -0.29,-0.242 -0.489,-0.367 -0.579,-0.367 -0.195,0 -0.379,-0.133 -0.531,-0.379 -0.152,-0.258 -0.305,-0.379 -0.484,-0.379 -0.215,0 -0.457,0.141 -0.762,0.411 -0.289,0.289 -0.516,0.425 -0.668,0.425 -0.652,0.09 -1.168,0.211 -1.535,0.368 -0.363,0.132 -0.668,0.3 -0.91,0.484 -0.352,0.258 -0.762,0.531 -1.199,0.789 -0.442,0.273 -1.278,0.535 -2.493,0.805 -0.394,0.062 -0.793,0.136 -1.199,0.226 -0.426,0.094 -0.836,0.141 -1.246,0.168 -0.273,0 -0.578,-0.027 -0.941,-0.105 -0.352,-0.074 -0.684,-0.106 -0.973,-0.106 -0.277,0 -0.547,0.074 -0.824,0.211 -0.285,0.153 -0.574,0.231 -0.879,0.231 -0.531,0 -1.078,-0.032 -1.656,-0.09 -0.594,-0.063 -1.184,-0.11 -1.805,-0.141 -0.277,0 -0.547,-0.012 -0.856,-0.027 -0.285,-0.031 -0.589,-0.047 -0.878,-0.047 -0.094,-0.152 -0.2,-0.305 -0.321,-0.457 -0.121,-0.133 -0.226,-0.289 -0.301,-0.441 -0.125,-0.18 -0.289,-0.364 -0.515,-0.559 -0.231,-0.184 -0.383,-0.383 -0.477,-0.547 -0.09,-0.184 -0.148,-0.383 -0.195,-0.609 -0.043,-0.211 -0.09,-0.426 -0.152,-0.59 -0.243,-0.547 -0.485,-1.113 -0.746,-1.707 -0.239,-0.59 -0.469,-1.211 -0.684,-1.867 -0.149,-0.411 -0.332,-1.016 -0.559,-1.789 -0.214,-0.793 -0.472,-1.719 -0.73,-2.797 -0.274,-1.184 -0.59,-2.567 -0.957,-4.176 -0.379,-1.598 -0.746,-3.359 -1.094,-5.262 -0.215,-1.062 -0.426,-2.187 -0.668,-3.371 -0.242,-1.183 -0.457,-2.414 -0.668,-3.66 -0.183,-0.973 -0.367,-1.977 -0.562,-2.992 -0.184,-1.035 -0.364,-2.067 -0.547,-3.102 -0.395,-2.308 -0.774,-4.648 -1.188,-6.988 -0.394,-2.34 -0.742,-4.633 -1.047,-6.852 -0.121,-1.125 -0.257,-2.246 -0.425,-3.359 -0.153,-1.121 -0.289,-2.184 -0.364,-3.234 0,-0.258 0.09,-0.563 0.289,-0.911 0.184,-0.335 0.274,-0.64 0.243,-0.91 0,-0.261 -0.079,-0.504 -0.227,-0.715 -0.152,-0.199 -0.23,-0.441 -0.23,-0.714 0,-0.168 -0.122,-0.426 -0.395,-0.778 -0.273,-0.332 -0.484,-0.547 -0.668,-0.636 -0.09,-0.028 -0.305,-0.184 -0.668,-0.454 -0.351,-0.261 -0.609,-0.398 -0.758,-0.398 -0.168,-0.031 -0.351,0.047 -0.535,0.23 -0.18,0.168 -0.332,0.258 -0.484,0.258 -0.121,0 -0.274,0.106 -0.473,0.317 -0.195,0.199 -0.379,0.336 -0.547,0.398 -0.304,0.09 -0.652,0.317 -1.047,0.664 -0.41,0.352 -0.652,0.641 -0.746,0.856 -0.105,0.226 -0.211,0.515 -0.289,0.863 -0.074,0.336 -0.101,0.715 -0.101,1.141 0,0.347 0,0.726 0.011,1.152 0.016,0.41 0.032,0.793 0.032,1.156 0,0.563 0.136,1.141 0.394,1.735 0.274,0.589 0.41,1.167 0.41,1.73 0,1.109 0.106,2.141 0.305,3.129 0.211,0.973 0.348,2.004 0.41,3.117 0,0.727 0.074,1.488 0.258,2.262 0.184,0.773 0.305,1.531 0.363,2.265 0.078,1.274 0.184,2.582 0.305,3.903 0.121,1.32 0.226,2.625 0.32,3.933 0.09,0.715 0.168,1.461 0.258,2.235 0.09,0.758 0.18,1.519 0.273,2.265 0.059,0.743 0.137,1.52 0.215,2.336 0.09,0.825 0.211,1.629 0.36,2.418 0.093,0.547 0.215,1.063 0.382,1.578 0.165,0.532 0.274,1.036 0.333,1.551 0.093,0.442 0.136,0.91 0.152,1.395 0.015,0.488 0.062,0.961 0.152,1.402 0.094,0.531 0.121,1.078 0.094,1.656 -0.031,0.559 0,1.137 0.09,1.731 0.09,0.347 0.258,0.742 0.484,1.152 0.246,0.414 0.399,0.824 0.457,1.203 0.059,0.363 0.121,0.731 0.211,1.11 0.094,0.394 0.168,0.757 0.231,1.121 0,0.047 0.074,0.168 0.226,0.351 0.137,0.184 0.32,0.426 0.531,0.762 0.153,0.258 0.399,0.59 0.758,0.973 0.352,0.39 0.672,0.726 0.93,1.031 0.441,0.5 0.699,0.82 0.73,0.973 0.047,0.152 0.305,0.441 0.743,0.894 0.089,0.094 0.304,0.231 0.668,0.441 0.351,0.215 0.578,0.348 0.671,0.442 0.09,0.09 0.075,0.226 -0.031,0.422 -0.105,0.199 -0.125,0.32 -0.062,0.383 -0.301,0 -0.532,0.015 -0.711,0.062 -0.184,0.043 -0.446,0.059 -0.809,0.027 -0.5,-0.058 -0.894,-0.105 -1.199,-0.152 -0.289,-0.043 -0.699,-0.105 -1.199,-0.164 -0.625,-0.078 -1.231,-0.156 -1.824,-0.215 -0.59,-0.062 -1.157,-0.137 -1.688,-0.23 -0.121,0 -0.258,0.05 -0.41,0.156 -0.137,0.105 -0.27,0.152 -0.395,0.121 -0.183,-0.031 -0.347,-0.152 -0.515,-0.367 -0.168,-0.195 -0.305,-0.301 -0.426,-0.301 -0.074,-0.031 -0.184,-0.184 -0.289,-0.426 -0.09,-0.258 -0.195,-0.394 -0.289,-0.425 -0.106,-0.032 -0.258,0.031 -0.422,0.179 -0.156,0.153 -0.277,0.215 -0.32,0.215 -0.184,-0.062 -0.289,-0.047 -0.305,0.043 -0.016,0.094 -0.016,0.246 -0.016,0.457 0,0.199 0.063,0.441 0.184,0.715 0.121,0.258 0.269,0.605 0.484,1.019 0.153,0.301 0.321,0.61 0.531,0.911 0.215,0.316 0.395,0.605 0.579,0.867 0.214,0.301 0.425,0.562 0.652,0.789 0.215,0.211 0.398,0.336 0.504,0.367 0.152,0.027 0.289,0.133 0.41,0.316 0.121,0.18 0.242,0.301 0.395,0.348 0.152,0.031 0.32,0.016 0.488,-0.047 0.18,-0.043 0.332,-0.058 0.453,-0.027 0.59,0.168 1.168,0.363 1.746,0.594 0.578,0.226 1.168,0.425 1.766,0.605 0.652,0.168 1.351,0.379 2.109,0.625 0.762,0.227 1.566,0.457 2.43,0.668 0.258,0.059 0.547,0.195 0.82,0.426 0.289,0.211 0.594,0.363 0.914,0.406 0.152,0.031 0.32,0.02 0.484,-0.043 0.184,-0.047 0.352,-0.074 0.5,-0.074 1.75,0.379 3.708,0.726 5.864,1.047 2.176,0.304 4.547,0.562 7.129,0.777 0.558,0.027 1.152,0.121 1.777,0.289 0.621,0.164 1.246,0.238 1.867,0.238 0.242,0 0.489,-0.027 0.715,-0.105 0.242,-0.074 0.469,-0.121 0.715,-0.121 0.332,0 0.668,0.016 1.016,0.031 0.367,0.016 0.714,0.016 1.082,0.016 0.347,0 0.695,-0.031 1.015,-0.09 0.336,-0.047 0.61,-0.125 0.852,-0.215 0.152,-0.062 0.226,-0.23 0.258,-0.488 0.031,-0.27 0.109,-0.453 0.226,-0.547 0.184,-0.106 0.399,-0.168 0.668,-0.168 0.277,0 0.442,-0.09 0.535,-0.27 0.332,-0.535 0.547,-1.171 0.653,-1.886 0.093,-0.727 0.121,-1.426 0.062,-2.078"
         inkscape:connector-curvature="0"
         id="path290"
         style="fill:#ffffff;fill-opacity:1;fill-rule:nonzero;stroke:none" /><path
         d="m 459.629,194.578 c 0.656,0 1.125,-0.211 1.43,-0.625 0.289,-0.406 0.441,-1.015 0.441,-1.82 0,-1.52 -0.062,-2.934 -0.199,-4.238 -0.137,-1.293 -0.363,-2.461 -0.699,-3.465 -0.442,-1.274 -0.864,-2.535 -1.258,-3.766 -0.399,-1.23 -0.805,-2.476 -1.235,-3.754 -0.437,-0.5 -0.742,-0.894 -0.879,-1.156 -0.062,-0.621 -0.136,-1.246 -0.23,-1.836 -0.031,-0.227 -0.137,-0.457 -0.332,-0.672 -0.195,-0.195 -0.441,-0.437 -0.73,-0.695 -0.09,-0.305 -0.211,-0.656 -0.364,-1.051 -0.136,-0.41 -0.32,-0.867 -0.531,-1.414 -0.777,-1.5 -1.809,-3.309 -3.086,-5.406 -1.293,-2.082 -2.871,-4.496 -4.711,-7.231 -0.027,-0.472 -0.043,-0.914 -0.043,-1.34 l -2.492,-5.332 c -0.852,-1.925 -1.609,-3.781 -2.25,-5.543 -0.637,-1.765 -1.106,-3.449 -1.441,-5.062 -0.18,-0.879 -0.321,-1.621 -0.426,-2.199 -0.09,-0.578 -0.153,-0.989 -0.153,-1.219 0,-0.301 0.18,-0.758 0.532,-1.363 0.363,-0.61 0.531,-0.993 0.531,-1.129 0,-0.649 -0.863,-1.5 -2.598,-2.535 -1.73,-1.051 -2.808,-1.551 -3.218,-1.52 -0.458,0.09 -0.915,0.168 -1.415,0.242 -0.484,0.078 -0.941,0.156 -1.351,0.246 -0.625,0.149 -1.094,0.348 -1.43,0.606 -0.316,0.246 -0.484,0.562 -0.484,0.957 0,0.289 0.105,0.867 0.316,1.734 0.258,1.305 0.594,2.504 0.992,3.586 0.407,1.074 0.907,2.078 1.5,3.008 l 0.122,0.164 c -0.075,0.125 -0.149,0.273 -0.196,0.457 -0.047,0.168 -0.105,0.363 -0.199,0.578 0.152,0.531 0.352,1.184 0.625,1.961 0.273,0.758 0.621,1.656 1.062,2.656 0.305,0.489 0.594,1.11 0.899,1.903 0.289,0.785 0.559,1.683 0.805,2.687 -1.051,0.867 -1.903,1.762 -2.582,2.719 -0.684,0.941 -1.157,1.945 -1.43,2.977 -0.246,0.503 -0.547,1.152 -0.926,1.945 -0.394,0.789 -0.808,1.73 -1.246,2.824 l -3.297,11.352 c -0.094,0.894 -0.211,1.945 -0.379,3.175 -0.168,1.243 -0.426,2.641 -0.777,4.207 l 0.398,1.032 -0.761,0.972 c 0,0.246 -0.016,0.578 -0.063,1.004 -0.043,0.426 -0.105,0.957 -0.195,1.578 -0.094,0.594 -0.153,1.11 -0.168,1.535 -0.016,0.442 -0.016,0.809 -0.016,1.094 0,1.094 0.168,1.946 0.488,2.539 0.332,0.59 0.817,0.969 1.473,1.11 0.211,0 0.442,0.015 0.684,0.027 0.258,0.02 0.531,0.02 0.836,0.02 0.347,0 1.425,0.468 3.234,1.425 0.836,0 1.504,-0.211 2.008,-0.64 0.5,-0.438 0.847,-1.043 1.031,-1.852 0.074,-0.41 0.137,-1 0.168,-1.762 0.031,-0.757 0.043,-1.656 0.043,-2.691 0,-0.559 -0.043,-1.383 -0.148,-2.445 -0.11,-1.078 -0.153,-1.852 -0.153,-2.367 0,-0.168 0.012,-0.364 0.059,-0.594 0.047,-0.227 0.094,-0.531 0.152,-0.91 0.031,-0.989 0.153,-2.176 0.336,-3.586 0.199,-1.414 0.438,-3.024 0.746,-4.832 0.164,-1.063 0.438,-2.403 0.785,-3.981 0.368,-1.597 0.778,-3.433 1.25,-5.543 0.243,-0.304 0.485,-0.656 0.743,-1.051 0.242,-0.394 0.488,-0.851 0.73,-1.351 l 0.316,-0.184 c 0.168,0 0.61,0.668 1.309,2.02 0.699,1.351 1.656,3.39 2.871,6.078 0.18,0.367 0.379,0.836 0.621,1.414 0.246,0.574 0.52,1.246 0.852,2.02 0.136,0.183 0.304,0.41 0.488,0.714 0.18,0.289 0.375,0.653 0.621,1.063 0.153,0.504 0.363,1.156 0.668,1.945 0.289,0.774 0.668,1.703 1.109,2.781 0.379,0.684 0.821,1.52 1.305,2.508 0.504,1 1.035,2.168 1.629,3.539 0.027,0.18 0.594,1.153 1.668,2.918 1.094,1.778 2.66,4.297 4.695,7.594 0.243,0.383 0.5,0.684 0.762,0.91 0.274,0.231 0.516,0.336 0.758,0.336"
         inkscape:connector-curvature="0"
         id="path292"
         style="fill:#ffffff;fill-opacity:1;fill-rule:nonzero;stroke:none" /><path
         d="m 273,183.762 c 0.215,-0.246 0.41,-0.485 0.609,-0.731 0.18,-0.258 0.364,-0.515 0.547,-0.789 0.27,-0.379 0.547,-0.793 0.817,-1.246 0.289,-0.441 0.519,-0.867 0.703,-1.293 0.148,-0.348 0.316,-0.711 0.515,-1.078 0.18,-0.379 0.321,-0.742 0.411,-1.09 0.089,-0.367 0.168,-0.715 0.21,-1.082 0.032,-0.348 0.047,-0.668 0.016,-0.926 -0.031,-0.367 -0.078,-0.73 -0.137,-1.109 -0.062,-0.395 -0.121,-0.758 -0.179,-1.125 -0.078,-0.715 -0.289,-1.547 -0.594,-2.504 -0.32,-0.973 -0.52,-1.797 -0.609,-2.48 -0.059,-0.379 -0.106,-0.864 -0.149,-1.442 -0.051,-0.578 -0.094,-1.062 -0.156,-1.441 -0.09,-0.535 -0.227,-1.082 -0.391,-1.614 -0.187,-0.531 -0.336,-1.062 -0.457,-1.593 -0.062,-0.246 -0.078,-0.489 -0.062,-0.746 0.015,-0.243 -0.016,-0.485 -0.074,-0.727 -0.141,-0.684 -0.336,-1.387 -0.579,-2.098 -0.226,-0.714 -0.441,-1.398 -0.625,-2.082 -0.089,-0.336 -0.136,-0.636 -0.148,-0.941 -0.02,-0.289 -0.047,-0.594 -0.109,-0.895 -0.153,-0.625 -0.426,-1.628 -0.821,-2.996 -0.41,-1.382 -0.652,-2.339 -0.742,-2.871 -0.094,-0.457 -0.226,-0.925 -0.426,-1.425 -0.183,-0.504 -0.347,-1.02 -0.457,-1.52 -0.058,-0.258 -0.031,-0.336 0.11,-0.215 0.132,0.109 0.164,0.047 0.101,-0.226 -0.148,-0.594 -0.347,-1.172 -0.621,-1.731 -0.258,-0.566 -0.473,-1.172 -0.621,-1.797 -0.121,-0.527 -0.215,-1.121 -0.305,-1.777 -0.093,-0.649 -0.199,-1.258 -0.32,-1.82 -0.09,-0.473 -0.301,-1.184 -0.637,-2.145 -0.347,-0.941 -0.578,-1.641 -0.699,-2.078 -0.105,-0.426 -0.215,-0.852 -0.305,-1.293 -0.089,-0.453 -0.168,-0.867 -0.226,-1.246 -0.121,-0.684 -0.258,-1.352 -0.426,-2.008 -0.152,-0.652 -0.273,-1.242 -0.336,-1.777 -0.027,-0.239 -0.016,-0.5 0.047,-0.758 0.059,-0.274 0.047,-0.485 -0.047,-0.668 -0.105,-0.274 -0.258,-0.563 -0.441,-0.899 -0.18,-0.316 -0.395,-0.558 -0.668,-0.714 -0.317,-0.196 -0.711,-0.516 -1.153,-0.954 -0.441,-0.425 -0.793,-0.667 -1.019,-0.73 -0.774,-0.215 -1.184,-0.016 -1.242,0.563 -0.063,0.574 -0.094,1.078 -0.094,1.535 0,0.441 -0.031,0.879 -0.063,1.304 -0.043,0.442 -0.058,0.914 -0.031,1.446 0.031,0.547 -0.074,1.062 -0.301,1.562 -0.246,0.504 -0.336,1.063 -0.273,1.688 0.059,0.625 0.215,1.273 0.473,1.945 0.238,0.668 0.422,1.352 0.5,2.066 0.089,0.59 0.195,1.321 0.285,2.188 0.109,0.851 0.23,1.594 0.336,2.215 0.152,0.898 0.425,1.84 0.804,2.859 0.379,1.004 0.657,2.008 0.805,2.981 0.184,1.152 0.215,2.125 0.109,2.914 -0.109,0.789 -0.062,1.761 0.106,2.918 0.121,0.832 0.379,2.004 0.758,3.539 0.398,1.535 0.64,2.675 0.761,3.449 0.122,0.715 0.196,1.457 0.227,2.23 0.031,0.762 0.105,1.508 0.258,2.223 0.183,0.805 0.441,1.684 0.762,2.641 0.32,0.972 0.531,1.808 0.621,2.523 0.125,0.836 0.23,1.777 0.304,2.856 0.09,1.062 0.168,1.941 0.227,2.656 0.183,2.144 0.258,3.89 0.246,5.258 -0.016,1.367 -0.289,2.129 -0.82,2.281 -0.215,0.043 -0.442,0.074 -0.715,0.058 -0.258,-0.015 -0.52,0.016 -0.762,0.11 -0.258,0.09 -0.516,0.226 -0.742,0.422 -0.246,0.195 -0.504,0.32 -0.762,0.383 -0.394,0.089 -0.82,0.148 -1.289,0.195 -0.488,0.047 -0.926,0.121 -1.34,0.199 -0.422,0.09 -0.836,0.211 -1.273,0.332 -0.426,0.137 -0.852,0.246 -1.262,0.289 -0.531,0.059 -0.988,0.059 -1.336,0 -0.363,-0.043 -0.808,-0.074 -1.336,-0.074 -0.277,0 -0.519,-0.063 -0.73,-0.184 -0.231,-0.121 -0.473,-0.183 -0.746,-0.183 -0.352,0 -0.711,0.062 -1.063,0.152 -0.363,0.109 -0.715,0.168 -1.066,0.168 -0.211,0 -0.469,0.016 -0.758,0.059 -0.305,0.05 -0.547,0.062 -0.762,0.062 -0.359,0 -0.636,0 -0.847,0 -0.196,0 -0.473,0 -0.805,0 -0.199,0 -0.426,0 -0.684,0 -0.257,0 -0.457,0 -0.593,0 -0.09,-0.531 -0.2,-1.078 -0.321,-1.656 -0.121,-0.59 -0.226,-1.156 -0.316,-1.715 -0.168,-1.051 -0.32,-1.945 -0.442,-2.719 -0.121,-0.777 -0.242,-1.687 -0.394,-2.769 -0.09,-0.711 -0.059,-1.094 0.09,-1.168 0.137,-0.074 0.183,-0.473 0.121,-1.188 -0.074,-0.968 -0.301,-2.293 -0.637,-3.933 -0.347,-1.657 -0.547,-2.93 -0.605,-3.856 -0.094,-1.062 -0.11,-2.008 -0.094,-2.828 0.031,-0.82 0.031,-1.746 0,-2.781 -0.047,-1.152 -0.121,-2.262 -0.215,-3.309 -0.09,-1.062 -0.137,-2.097 -0.137,-3.101 0,-0.684 -0.058,-1.399 -0.179,-2.157 -0.11,-0.761 -0.168,-1.425 -0.168,-2.019 0,-0.715 0.078,-1.402 0.246,-2.051 0.148,-0.652 0.258,-1.25 0.285,-1.777 0.062,-0.656 0.273,-0.973 0.641,-0.961 0.379,0.019 0.742,0.156 1.089,0.414 0.411,0.332 0.809,0.621 1.188,0.894 0.363,0.274 0.621,0.348 0.773,0.231 0.442,-0.399 0,-1.84 -1.32,-4.363 -1.305,-2.52 -2.355,-4.192 -3.133,-4.996 -0.179,-0.168 -0.347,-0.426 -0.527,-0.747 -0.184,-0.335 -0.383,-0.578 -0.578,-0.714 -0.274,-0.184 -0.594,-0.379 -0.957,-0.606 -0.379,-0.23 -0.746,-0.305 -1.094,-0.246 -0.715,0.121 -1.262,0.352 -1.641,0.715 -0.398,0.351 -0.73,1.094 -1.035,2.219 -0.226,1.019 -0.394,2.461 -0.484,4.328 -0.09,1.867 -0.11,4.211 -0.047,7.035 0,0.883 0.047,1.84 0.137,2.84 0.09,1.019 0.152,2.054 0.183,3.117 0.016,0.457 0.063,0.91 0.106,1.41 0.047,0.488 0.058,0.992 0.058,1.488 0.032,1.34 0.063,2.602 0.094,3.786 0.031,1.183 0.106,2.492 0.227,3.921 0.062,0.653 0.136,1.231 0.246,1.731 0.105,0.5 0.195,1.078 0.285,1.73 0.152,0.957 0.305,2.004 0.473,3.145 0.152,1.141 0.289,2.156 0.382,3.055 0.164,1.187 0.328,2.203 0.485,3.07 0.152,0.848 0.301,1.82 0.484,2.887 0.094,0.593 0.184,1.183 0.289,1.777 0.106,0.594 0.211,1.168 0.332,1.699 -0.258,0 -0.547,-0.012 -0.816,-0.031 -0.289,-0.012 -0.547,-0.012 -0.774,-0.012 -0.457,0 -0.882,-0.047 -1.324,-0.137 -0.426,-0.093 -0.82,-0.14 -1.168,-0.14 -0.687,-0.027 -1.539,0 -2.539,0.094 -0.152,0.062 -0.289,0.195 -0.426,0.425 -0.136,0.227 -0.183,0.547 -0.152,0.957 0,0.211 0.078,0.469 0.246,0.805 0.149,0.32 0.301,0.668 0.406,1.016 0.063,0.215 0.11,0.426 0.141,0.672 0.027,0.242 0.07,0.453 0.133,0.668 0.414,1.093 0.957,2.078 1.613,2.929 0.637,0.867 1.305,1.34 1.988,1.43 0.153,0 0.395,0 0.746,0.016 0.336,0.015 0.774,0.027 1.305,0.027 0.531,0 1.141,0 1.809,0 0.668,0 1.383,0 2.156,0 0.562,0.902 1.156,1.566 1.762,2.055 0.609,0.468 1.187,0.746 1.765,0.789 0.379,0.031 0.668,-0.164 0.864,-0.621 0.183,-0.446 0.23,-1.219 0.109,-2.313 0.289,0 0.547,0 0.727,-0.012 0.199,-0.019 0.468,-0.031 0.835,-0.031 0.442,0 0.942,-0.016 1.504,-0.062 0.563,-0.043 1.094,-0.075 1.614,-0.075 0.5,0 0.937,-0.031 1.304,-0.089 0.364,-0.047 0.805,-0.094 1.309,-0.125 0.652,-0.032 1.184,-0.09 1.578,-0.165 0.41,-0.062 0.926,-0.156 1.551,-0.246 0.5,-0.058 1,-0.105 1.5,-0.168 0.504,-0.058 0.992,-0.132 1.43,-0.226 0.273,-0.063 0.546,-0.074 0.851,-0.043 0.289,0.027 0.563,0.012 0.789,-0.047 0.336,-0.094 0.641,-0.211 0.91,-0.352 0.289,-0.148 0.52,-0.242 0.7,-0.273 0.183,-0.031 0.382,-0.121 0.625,-0.289 0.226,-0.164 0.484,-0.332 0.761,-0.516 0.258,-0.164 0.559,-0.41 0.906,-0.683 0.336,-0.289 0.672,-0.61 1.004,-0.957 0.168,-0.211 0.395,-0.426 0.672,-0.668 0.258,-0.242 0.516,-0.485 0.742,-0.762 0.243,-0.258 0.5,-0.559 0.762,-0.879 0.274,-0.336 0.516,-0.637 0.758,-0.941 z"
         inkscape:connector-curvature="0"
         id="path294"
         style="fill:none;stroke:#ffffff;stroke-width:5.00029993;stroke-linecap:butt;stroke-linejoin:miter;stroke-miterlimit:2.61310005;stroke-opacity:1;stroke-dasharray:none" /><path
         d="m 277.832,144.914 c 0.352,0.621 0.82,1.246 1.383,1.883 0.562,0.641 1.262,1.293 2.125,1.976 0.094,0.594 0.183,1.184 0.277,1.762 0.074,0.578 0.137,1.168 0.164,1.762 0.094,0.41 0.231,0.894 0.426,1.461 0.195,0.574 0.414,1.183 0.652,1.836 0.258,0.656 0.625,1.461 1.082,2.445 0.469,0.973 1.063,2.066 1.809,3.297 0.621,0.668 1.273,1.43 1.957,2.25 0.684,0.805 1.367,1.625 2.051,2.461 0.32,0.273 0.683,0.515 1.066,0.762 0.379,0.238 0.774,0.496 1.153,0.804 0.367,0.121 0.757,0.211 1.199,0.301 0.457,0.094 0.945,0.137 1.472,0.137 0.747,0 1.34,-0.074 1.809,-0.227 0.457,-0.136 0.836,-0.394 1.125,-0.746 0.215,-0.242 0.414,-0.605 0.609,-1.074 0.196,-0.477 0.379,-1.051 0.559,-1.734 0.078,-0.59 0.184,-1.247 0.309,-1.961 0,0.183 -0.047,0.109 -0.157,-0.227 -0.101,-0.32 -0.257,-0.836 -0.468,-1.551 l -0.395,-1.429 c -0.426,-1.426 -1.351,-3.067 -2.812,-4.938 -1.457,-1.867 -3.418,-4.012 -5.879,-6.406 -0.2,-0.215 -0.379,-0.477 -0.532,-0.778 -0.152,-0.32 -0.214,-0.652 -0.214,-1 0,-0.625 0.109,-1.187 0.336,-1.66 0.21,-0.468 0.531,-0.82 0.957,-1.062 0.226,-0.18 0.609,-0.363 1.125,-0.531 0.531,-0.184 1.136,-0.352 1.851,-0.489 1.156,0.078 2.219,0.278 3.16,0.578 0.961,0.289 1.809,0.653 2.555,1.067 0.137,0.09 0.379,0.211 0.699,0.379 0.332,0.168 0.653,0.379 0.985,0.652 0.378,-0.867 0.73,-1.641 1.019,-2.324 0.305,-0.684 0.531,-1.278 0.715,-1.778 -1.684,-1.656 -3.223,-2.917 -4.606,-3.769 -1.378,-0.836 -2.656,-1.262 -3.812,-1.262 -0.469,-0.301 -1.016,-0.515 -1.625,-0.652 -0.609,-0.137 -1.324,-0.195 -2.156,-0.195 -1.094,0 -2.067,0.168 -2.918,0.488 -0.852,0.328 -1.551,0.805 -2.11,1.426 -0.308,0.304 -0.593,0.73 -0.898,1.32 -0.289,0.578 -0.609,1.262 -0.93,2.066 -0.269,0.653 -0.515,1.141 -0.758,1.446 -0.242,0.316 -0.5,0.468 -0.804,0.468 -0.227,0 -0.5,-0.105 -0.805,-0.332 -0.285,-0.226 -0.621,-0.562 -0.973,-1.004 -0.121,0.442 -0.316,1.004 -0.621,1.653 -0.289,0.656 -0.687,1.461 -1.156,2.449 z m 14.234,14.445 c -0.652,0 -1.519,-0.847 -2.625,-2.55 -1.097,-1.715 -1.644,-2.961 -1.644,-3.766 0,-0.184 0.031,-0.305 0.109,-0.379 0.074,-0.078 0.227,-0.109 0.469,-0.109 0.336,0 0.594,0.168 0.805,0.515 0.199,0.336 0.394,0.657 0.578,0.957 0.32,0.289 0.64,0.61 0.957,0.961 0.305,0.332 0.609,0.668 0.914,0.985 0.348,0.425 0.621,0.836 0.789,1.25 0.184,0.422 0.273,0.832 0.273,1.242 0,0.273 -0.046,0.488 -0.152,0.656 -0.105,0.168 -0.258,0.238 -0.473,0.238 z"
         inkscape:connector-curvature="0"
         id="path296"
         style="fill:none;stroke:#ffffff;stroke-width:5.00029993;stroke-linecap:butt;stroke-linejoin:miter;stroke-miterlimit:2.61310005;stroke-opacity:1;stroke-dasharray:none" /><path
         d="m 299.754,144.914 c 0.184,0.211 0.379,0.488 0.625,0.82 0.242,0.348 0.5,0.715 0.805,1.141 1.304,1.625 2.566,3.082 3.796,4.375 1.231,1.289 2.403,2.43 3.497,3.449 0.562,0.531 1.246,1.215 2.05,2.067 0.789,0.836 1.731,1.808 2.793,2.902 1.067,0.426 2.25,0.894 3.528,1.426 0.789,0 1.382,-0.258 1.777,-0.774 0.379,-0.515 0.578,-1.277 0.578,-2.25 0,-0.836 -0.078,-1.73 -0.199,-2.687 -0.137,-0.957 -0.32,-1.945 -0.563,-2.965 -0.273,-0.789 -0.484,-1.563 -0.668,-2.309 0,-0.195 0.047,-0.363 0.137,-0.472 0.09,-0.09 0.227,-0.149 0.438,-0.149 0.445,0.211 1.308,0.953 2.586,2.231 1.277,1.277 2.945,3.054 5.031,5.336 1.777,1.957 3.34,3.418 4.676,4.39 1.324,0.953 2.402,1.442 3.207,1.442 0.847,0 1.488,-0.321 1.882,-0.957 0.395,-0.637 0.61,-1.578 0.61,-2.828 0,-1.809 -0.137,-3.555 -0.41,-5.223 -0.262,-1.672 -0.731,-3.281 -1.383,-4.832 -0.109,-0.289 -0.184,-0.547 -0.215,-0.742 -0.031,-0.215 -0.043,-0.414 -0.043,-0.594 0,-0.199 0.18,-0.399 0.531,-0.578 0.242,0.211 0.516,0.515 0.821,0.894 0.316,0.379 0.683,0.883 1.093,1.477 0.684,0.558 1.368,1.125 2.051,1.684 0.684,0.562 1.426,1.14 2.219,1.734 0.836,0.652 1.687,1.152 2.535,1.488 0.867,0.348 1.715,0.516 2.539,0.516 0.149,0 0.305,-0.047 0.457,-0.137 0.137,-0.09 0.285,-0.199 0.438,-0.305 0.683,-0.589 1.246,-1.136 1.687,-1.625 0.457,-0.5 0.758,-0.91 0.942,-1.277 1.156,-2.367 2.187,-4.144 3.101,-5.316 0.895,-1.168 1.684,-1.746 2.367,-1.746 0.153,0 0.305,0.031 0.457,0.105 0.137,0.074 0.285,0.168 0.442,0.289 0.683,-1.457 1.261,-2.828 1.73,-4.102 -1.062,-0.835 -2.019,-1.457 -2.855,-1.898 -0.821,-0.426 -1.551,-0.641 -2.172,-0.641 -2.055,0 -4.164,1.321 -6.352,3.981 -2.172,2.66 -3.843,3.984 -5,3.984 -1.547,0 -4.113,-2.265 -7.699,-6.824 -3.586,-4.559 -5.836,-6.836 -6.715,-6.836 -0.457,0 -1.051,0.043 -1.793,0.137 -0.23,0.09 -0.41,0.273 -0.535,0.547 -0.121,0.289 -0.18,0.621 -0.18,1 0,0.457 0.09,1.035 0.274,1.765 0.18,0.727 0.41,1.578 0.715,2.551 0.379,1.262 0.699,2.25 0.925,2.992 0.243,0.746 0.379,1.262 0.411,1.551 0.089,0.395 0.211,1.152 0.379,2.281 0.152,1.121 0.382,2.625 0.64,4.493 0,0.32 -0.094,0.578 -0.258,0.746 -0.187,0.183 -0.398,0.273 -0.625,0.273 -0.214,0 -0.441,-0.059 -0.699,-0.195 -0.242,-0.137 -0.531,-0.352 -0.867,-0.657 -0.348,-0.378 -0.746,-0.757 -1.184,-1.152 -0.425,-0.379 -1.109,-0.926 -2.066,-1.64 -1.035,-1.188 -2.098,-2.403 -3.176,-3.633 -1.094,-1.231 -2.187,-2.473 -3.312,-3.723 -1.793,-2.066 -3.207,-3.598 -4.254,-4.602 -1.063,-0.988 -1.731,-1.488 -2.02,-1.488 -0.894,0 -1.562,0.106 -2.035,0.305 -0.457,0.211 -0.687,0.531 -0.687,0.941 0,0.969 0.535,3.024 1.582,6.106 1.05,3.097 1.582,5.289 1.582,6.562 0,0.215 -0.078,0.379 -0.196,0.516 -0.14,0.141 -0.308,0.199 -0.519,0.199 -0.352,0 -0.774,-0.199 -1.278,-0.605 -0.484,-0.399 -1.031,-1.02 -1.656,-1.887 -0.422,-0.469 -0.926,-1.016 -1.519,-1.641 -0.59,-0.621 -1.321,-1.351 -2.172,-2.172 -0.09,-0.242 -0.215,-0.468 -0.363,-0.699 -0.153,-0.211 -0.305,-0.426 -0.489,-0.637 -0.121,0.442 -0.316,1.004 -0.621,1.653 -0.289,0.656 -0.683,1.461 -1.156,2.449 z"
         inkscape:connector-curvature="0"
         id="path298"
         style="fill:none;stroke:#ffffff;stroke-width:5.00029993;stroke-linecap:butt;stroke-linejoin:miter;stroke-miterlimit:2.61310005;stroke-opacity:1;stroke-dasharray:none" /><path
         d="m 355.453,144.914 c 0.59,0.777 1.352,1.684 2.293,2.781 0.926,1.078 2.066,2.309 3.402,3.692 0.09,0.273 0.215,0.593 0.348,0.957 0.156,0.379 0.383,0.847 0.672,1.414 1.582,2.336 2.992,4.601 4.238,6.758 1.246,2.172 2.309,4.285 3.203,6.32 0.262,0.519 0.547,1.141 0.868,1.898 0.304,0.762 0.699,1.61 1.171,2.555 0.426,0.715 0.832,1.262 1.231,1.656 0.394,0.379 0.789,0.578 1.183,0.578 0.594,0 1.02,-0.261 1.309,-0.761 0.289,-0.5 0.426,-1.293 0.426,-2.356 0,-0.59 -0.516,-2.523 -1.535,-5.758 -1.035,-3.25 -2.555,-7.839 -4.574,-13.734 -0.532,-1.426 -1.122,-3.418 -1.778,-5.984 -0.652,-2.567 -1.41,-5.774 -2.262,-9.602 -0.093,-0.562 -0.183,-1.215 -0.289,-1.961 -0.109,-0.726 -0.257,-1.594 -0.472,-2.582 -0.5,-1.898 -0.867,-3.402 -1.067,-4.527 -0.211,-1.141 -0.3,-1.852 -0.269,-2.188 l 0.179,-0.347 c 0.153,0.089 0.321,0.363 0.504,0.832 0.196,0.488 0.364,1.156 0.516,2.05 0.184,0.809 0.32,1.477 0.41,2.024 0.078,0.547 0.09,1.004 0.031,1.367 0.653,1.715 1.43,3.918 2.325,6.609 0.882,2.672 1.925,5.801 3.117,9.356 0.469,0.867 1.015,1.914 1.621,3.148 0.609,1.231 1.25,2.688 1.93,4.371 0.683,0.657 1.308,1.141 1.855,1.446 0.547,0.32 1.02,0.472 1.399,0.472 0.832,0 1.609,-0.23 2.324,-0.668 0.715,-0.445 1.367,-1.093 1.957,-1.945 0.136,-0.215 0.414,-0.746 0.824,-1.582 0.395,-0.851 0.941,-1.988 1.625,-3.445 0.379,-0.883 0.789,-1.582 1.195,-2.067 0.414,-0.488 0.825,-0.746 1.203,-0.777 l 1.868,-4.102 c -0.153,-0.031 -0.547,-0.136 -1.184,-0.304 -0.637,-0.18 -1.551,-0.379 -2.734,-0.594 l -3.024,1.125 c -0.746,0.199 -1.64,0.93 -2.687,2.172 -1.067,1.25 -1.914,1.961 -2.571,2.172 -0.621,-0.438 -1.289,-1.321 -2.004,-2.625 -0.714,-1.309 -1.429,-2.996 -2.171,-5.074 -0.184,-0.473 -0.411,-0.989 -0.7,-1.536 -0.273,-0.546 -0.562,-1.171 -0.867,-1.886 -0.18,-1.121 -0.379,-2.215 -0.621,-3.25 -0.379,-0.895 -0.809,-2.02 -1.246,-3.403 -0.441,-1.382 -0.914,-3.023 -1.43,-4.921 -0.136,-0.653 -0.515,-1.626 -1.121,-2.93 -0.609,-1.309 -0.972,-2.297 -1.094,-2.981 -0.062,-0.425 -0.187,-0.972 -0.382,-1.656 -0.196,-0.683 -0.489,-1.473 -0.868,-2.402 -0.683,-1.184 -1.304,-2.078 -1.867,-2.684 -0.562,-0.613 -1.047,-0.914 -1.429,-0.914 -0.895,0 -1.563,0.426 -2.004,1.293 -0.442,0.863 -0.668,2.141 -0.668,3.824 0,2.555 0.152,5.352 0.441,8.418 0.305,3.055 0.742,6.336 1.336,9.828 0.18,1.02 0.379,2.036 0.578,3.071 0.211,1.05 0.426,2.097 0.621,3.16 0.274,1.246 0.457,2.398 0.563,3.433 0.105,1.032 0.125,1.977 0.062,2.797 -0.289,-0.078 -0.793,-0.457 -1.488,-1.125 -0.703,-0.668 -1.582,-1.672 -2.645,-3.008 -0.125,0.442 -0.32,1.004 -0.621,1.653 -0.289,0.656 -0.687,1.461 -1.156,2.449 z"
         inkscape:connector-curvature="0"
         id="path300"
         style="fill:none;stroke:#ffffff;stroke-width:5.00029993;stroke-linecap:butt;stroke-linejoin:miter;stroke-miterlimit:2.61310005;stroke-opacity:1;stroke-dasharray:none" /><path
         d="m 431.996,187.227 c 0,-0.442 0,-0.93 0,-1.461 0,-0.532 -0.047,-1.032 -0.137,-1.473 -0.031,-0.242 -0.121,-0.473 -0.289,-0.715 -0.168,-0.226 -0.277,-0.441 -0.336,-0.621 -0.183,-0.504 -0.41,-0.883 -0.714,-1.141 -0.29,-0.242 -0.489,-0.367 -0.579,-0.367 -0.195,0 -0.379,-0.133 -0.531,-0.379 -0.152,-0.258 -0.305,-0.379 -0.484,-0.379 -0.215,0 -0.457,0.141 -0.762,0.411 -0.289,0.289 -0.516,0.425 -0.668,0.425 -0.652,0.09 -1.168,0.211 -1.535,0.368 -0.363,0.132 -0.668,0.3 -0.91,0.484 -0.352,0.258 -0.762,0.531 -1.199,0.789 -0.442,0.273 -1.278,0.535 -2.493,0.805 -0.394,0.062 -0.793,0.136 -1.199,0.226 -0.426,0.094 -0.836,0.141 -1.246,0.168 -0.273,0 -0.578,-0.027 -0.941,-0.105 -0.352,-0.074 -0.684,-0.106 -0.973,-0.106 -0.277,0 -0.547,0.074 -0.824,0.211 -0.285,0.153 -0.574,0.231 -0.879,0.231 -0.531,0 -1.078,-0.032 -1.656,-0.09 -0.594,-0.063 -1.184,-0.11 -1.805,-0.141 -0.277,0 -0.547,-0.012 -0.856,-0.027 -0.285,-0.031 -0.589,-0.047 -0.878,-0.047 -0.094,-0.152 -0.2,-0.305 -0.321,-0.457 -0.121,-0.133 -0.226,-0.289 -0.301,-0.441 -0.125,-0.18 -0.289,-0.364 -0.515,-0.559 -0.231,-0.184 -0.383,-0.383 -0.477,-0.547 -0.09,-0.184 -0.148,-0.383 -0.195,-0.609 -0.043,-0.211 -0.09,-0.426 -0.152,-0.59 -0.243,-0.547 -0.485,-1.113 -0.746,-1.707 -0.239,-0.59 -0.469,-1.211 -0.684,-1.867 -0.149,-0.411 -0.332,-1.016 -0.559,-1.789 -0.214,-0.793 -0.472,-1.719 -0.73,-2.797 -0.274,-1.184 -0.59,-2.567 -0.957,-4.176 -0.379,-1.598 -0.746,-3.359 -1.094,-5.262 -0.215,-1.062 -0.426,-2.187 -0.668,-3.371 -0.242,-1.183 -0.457,-2.414 -0.668,-3.66 -0.183,-0.973 -0.367,-1.977 -0.562,-2.992 -0.184,-1.035 -0.364,-2.067 -0.547,-3.102 -0.395,-2.308 -0.774,-4.648 -1.188,-6.988 -0.394,-2.34 -0.742,-4.633 -1.047,-6.852 -0.121,-1.125 -0.257,-2.246 -0.425,-3.359 -0.153,-1.121 -0.289,-2.184 -0.364,-3.234 0,-0.258 0.09,-0.563 0.289,-0.911 0.184,-0.335 0.274,-0.64 0.243,-0.91 0,-0.261 -0.079,-0.504 -0.227,-0.715 -0.152,-0.199 -0.23,-0.441 -0.23,-0.714 0,-0.168 -0.122,-0.426 -0.395,-0.778 -0.273,-0.332 -0.484,-0.547 -0.668,-0.636 -0.09,-0.028 -0.305,-0.184 -0.668,-0.454 -0.351,-0.261 -0.609,-0.398 -0.758,-0.398 -0.168,-0.031 -0.351,0.047 -0.535,0.23 -0.18,0.168 -0.332,0.258 -0.484,0.258 -0.121,0 -0.274,0.106 -0.473,0.317 -0.195,0.199 -0.379,0.336 -0.547,0.398 -0.304,0.09 -0.652,0.317 -1.047,0.664 -0.41,0.352 -0.652,0.641 -0.746,0.856 -0.105,0.226 -0.211,0.515 -0.289,0.863 -0.074,0.336 -0.101,0.715 -0.101,1.141 0,0.347 0,0.726 0.011,1.152 0.016,0.41 0.032,0.793 0.032,1.156 0,0.563 0.136,1.141 0.394,1.735 0.274,0.589 0.41,1.167 0.41,1.73 0,1.109 0.106,2.141 0.305,3.129 0.211,0.973 0.348,2.004 0.41,3.117 0,0.727 0.074,1.488 0.258,2.262 0.184,0.773 0.305,1.531 0.363,2.265 0.078,1.274 0.184,2.582 0.305,3.903 0.121,1.32 0.226,2.625 0.32,3.933 0.09,0.715 0.168,1.461 0.258,2.235 0.09,0.758 0.18,1.519 0.273,2.265 0.059,0.743 0.137,1.52 0.215,2.336 0.09,0.825 0.211,1.629 0.36,2.418 0.093,0.547 0.215,1.063 0.382,1.578 0.165,0.532 0.274,1.036 0.333,1.551 0.093,0.442 0.136,0.91 0.152,1.395 0.015,0.488 0.062,0.961 0.152,1.402 0.094,0.531 0.121,1.078 0.094,1.656 -0.031,0.559 0,1.137 0.09,1.731 0.09,0.347 0.258,0.742 0.484,1.152 0.246,0.414 0.399,0.824 0.457,1.203 0.059,0.363 0.121,0.731 0.211,1.11 0.094,0.394 0.168,0.757 0.231,1.121 0,0.047 0.074,0.168 0.226,0.351 0.137,0.184 0.32,0.426 0.531,0.762 0.153,0.258 0.399,0.59 0.758,0.973 0.352,0.39 0.672,0.726 0.93,1.031 0.441,0.5 0.699,0.82 0.73,0.973 0.047,0.152 0.305,0.441 0.743,0.894 0.089,0.094 0.304,0.231 0.668,0.441 0.351,0.215 0.578,0.348 0.671,0.442 0.09,0.09 0.075,0.226 -0.031,0.422 -0.105,0.199 -0.125,0.32 -0.062,0.383 -0.301,0 -0.532,0.015 -0.711,0.062 -0.184,0.043 -0.446,0.059 -0.809,0.027 -0.5,-0.058 -0.894,-0.105 -1.199,-0.152 -0.289,-0.043 -0.699,-0.105 -1.199,-0.164 -0.625,-0.078 -1.231,-0.156 -1.824,-0.215 -0.59,-0.062 -1.157,-0.137 -1.688,-0.23 -0.121,0 -0.258,0.05 -0.41,0.156 -0.137,0.105 -0.27,0.152 -0.395,0.121 -0.183,-0.031 -0.347,-0.152 -0.515,-0.367 -0.168,-0.195 -0.305,-0.301 -0.426,-0.301 -0.074,-0.031 -0.184,-0.184 -0.289,-0.426 -0.09,-0.258 -0.195,-0.394 -0.289,-0.425 -0.106,-0.032 -0.258,0.031 -0.422,0.179 -0.156,0.153 -0.277,0.215 -0.32,0.215 -0.184,-0.062 -0.289,-0.047 -0.305,0.043 -0.016,0.094 -0.016,0.246 -0.016,0.457 0,0.199 0.063,0.441 0.184,0.715 0.121,0.258 0.269,0.605 0.484,1.019 0.153,0.301 0.321,0.61 0.531,0.911 0.215,0.316 0.395,0.605 0.579,0.867 0.214,0.301 0.425,0.562 0.652,0.789 0.215,0.211 0.398,0.336 0.504,0.367 0.152,0.027 0.289,0.133 0.41,0.316 0.121,0.18 0.242,0.301 0.395,0.348 0.152,0.031 0.32,0.016 0.488,-0.047 0.18,-0.043 0.332,-0.058 0.453,-0.027 0.59,0.168 1.168,0.363 1.746,0.594 0.578,0.226 1.168,0.425 1.766,0.605 0.652,0.168 1.351,0.379 2.109,0.625 0.762,0.227 1.566,0.457 2.43,0.668 0.258,0.059 0.547,0.195 0.82,0.426 0.289,0.211 0.594,0.363 0.914,0.406 0.152,0.031 0.32,0.02 0.484,-0.043 0.184,-0.047 0.352,-0.074 0.5,-0.074 1.75,0.379 3.708,0.726 5.864,1.047 2.176,0.304 4.547,0.562 7.129,0.777 0.558,0.027 1.152,0.121 1.777,0.289 0.621,0.164 1.246,0.238 1.867,0.238 0.242,0 0.489,-0.027 0.715,-0.105 0.242,-0.074 0.469,-0.121 0.715,-0.121 0.332,0 0.668,0.016 1.016,0.031 0.367,0.016 0.714,0.016 1.082,0.016 0.347,0 0.695,-0.031 1.015,-0.09 0.336,-0.047 0.61,-0.125 0.852,-0.215 0.152,-0.062 0.226,-0.23 0.258,-0.488 0.031,-0.27 0.109,-0.453 0.226,-0.547 0.184,-0.106 0.399,-0.168 0.668,-0.168 0.277,0 0.442,-0.09 0.535,-0.27 0.332,-0.535 0.547,-1.171 0.653,-1.886 0.093,-0.727 0.121,-1.426 0.062,-2.078 z"
         inkscape:connector-curvature="0"
         id="path302"
         style="fill:none;stroke:#ffffff;stroke-width:5.00029993;stroke-linecap:butt;stroke-linejoin:miter;stroke-miterlimit:2.61310005;stroke-opacity:1;stroke-dasharray:none" /><path
         d="m 459.629,194.578 c 0.656,0 1.125,-0.211 1.43,-0.625 0.289,-0.406 0.441,-1.015 0.441,-1.82 0,-1.52 -0.062,-2.934 -0.199,-4.238 -0.137,-1.293 -0.363,-2.461 -0.699,-3.465 -0.442,-1.274 -0.864,-2.535 -1.258,-3.766 -0.399,-1.23 -0.805,-2.476 -1.235,-3.754 -0.437,-0.5 -0.742,-0.894 -0.879,-1.156 -0.062,-0.621 -0.136,-1.246 -0.23,-1.836 -0.031,-0.227 -0.137,-0.457 -0.332,-0.672 -0.195,-0.195 -0.441,-0.437 -0.73,-0.695 -0.09,-0.305 -0.211,-0.656 -0.364,-1.051 -0.136,-0.41 -0.32,-0.867 -0.531,-1.414 -0.777,-1.5 -1.809,-3.309 -3.086,-5.406 -1.293,-2.082 -2.871,-4.496 -4.711,-7.231 -0.027,-0.472 -0.043,-0.914 -0.043,-1.34 l -2.492,-5.332 c -0.852,-1.925 -1.609,-3.781 -2.25,-5.543 -0.637,-1.765 -1.106,-3.449 -1.441,-5.062 -0.18,-0.879 -0.321,-1.621 -0.426,-2.199 -0.09,-0.578 -0.153,-0.989 -0.153,-1.219 0,-0.301 0.18,-0.758 0.532,-1.363 0.363,-0.61 0.531,-0.993 0.531,-1.129 0,-0.649 -0.863,-1.5 -2.598,-2.535 -1.73,-1.051 -2.808,-1.551 -3.218,-1.52 -0.458,0.09 -0.915,0.168 -1.415,0.242 -0.484,0.078 -0.941,0.156 -1.351,0.246 -0.625,0.149 -1.094,0.348 -1.43,0.606 -0.316,0.246 -0.484,0.562 -0.484,0.957 0,0.289 0.105,0.867 0.316,1.734 0.258,1.305 0.594,2.504 0.992,3.586 0.407,1.074 0.907,2.078 1.5,3.008 l 0.122,0.164 c -0.075,0.125 -0.149,0.273 -0.196,0.457 -0.047,0.168 -0.105,0.363 -0.199,0.578 0.152,0.531 0.352,1.184 0.625,1.961 0.273,0.758 0.621,1.656 1.062,2.656 0.305,0.489 0.594,1.11 0.899,1.903 0.289,0.785 0.559,1.683 0.805,2.687 -1.051,0.867 -1.903,1.762 -2.582,2.719 -0.684,0.941 -1.157,1.945 -1.43,2.977 -0.246,0.503 -0.547,1.152 -0.926,1.945 -0.394,0.789 -0.808,1.73 -1.246,2.824 l -3.297,11.352 c -0.094,0.894 -0.211,1.945 -0.379,3.175 -0.168,1.243 -0.426,2.641 -0.777,4.207 l 0.398,1.032 -0.761,0.972 c 0,0.246 -0.016,0.578 -0.063,1.004 -0.043,0.426 -0.105,0.957 -0.195,1.578 -0.094,0.594 -0.153,1.11 -0.168,1.535 -0.016,0.442 -0.016,0.809 -0.016,1.094 0,1.094 0.168,1.946 0.488,2.539 0.332,0.59 0.817,0.969 1.473,1.11 0.211,0 0.442,0.015 0.684,0.027 0.258,0.02 0.531,0.02 0.836,0.02 0.347,0 1.425,0.468 3.234,1.425 0.836,0 1.504,-0.211 2.008,-0.64 0.5,-0.438 0.847,-1.043 1.031,-1.852 0.074,-0.41 0.137,-1 0.168,-1.762 0.031,-0.757 0.043,-1.656 0.043,-2.691 0,-0.559 -0.043,-1.383 -0.148,-2.445 -0.11,-1.078 -0.153,-1.852 -0.153,-2.367 0,-0.168 0.012,-0.364 0.059,-0.594 0.047,-0.227 0.094,-0.531 0.152,-0.91 0.031,-0.989 0.153,-2.176 0.336,-3.586 0.199,-1.414 0.438,-3.024 0.746,-4.832 0.164,-1.063 0.438,-2.403 0.785,-3.981 0.368,-1.597 0.778,-3.433 1.25,-5.543 0.243,-0.304 0.485,-0.656 0.743,-1.051 0.242,-0.394 0.488,-0.851 0.73,-1.351 l 0.316,-0.184 c 0.168,0 0.61,0.668 1.309,2.02 0.699,1.351 1.656,3.39 2.871,6.078 0.18,0.367 0.379,0.836 0.621,1.414 0.246,0.574 0.52,1.246 0.852,2.02 0.136,0.183 0.304,0.41 0.488,0.714 0.18,0.289 0.375,0.653 0.621,1.063 0.153,0.504 0.363,1.156 0.668,1.945 0.289,0.774 0.668,1.703 1.109,2.781 0.379,0.684 0.821,1.52 1.305,2.508 0.504,1 1.035,2.168 1.629,3.539 0.027,0.18 0.594,1.153 1.668,2.918 1.094,1.778 2.66,4.297 4.695,7.594 0.243,0.383 0.5,0.684 0.762,0.91 0.274,0.231 0.516,0.336 0.758,0.336 z"
         inkscape:connector-curvature="0"
         id="path304"
         style="fill:none;stroke:#ffffff;stroke-width:5.00029993;stroke-linecap:butt;stroke-linejoin:miter;stroke-miterlimit:2.61310005;stroke-opacity:1;stroke-dasharray:none" /></g></g></svg>